<svg xmlns="http://www.w3.org/2000/svg" viewBox="0 0 150.3 150.3"><defs><style>.cls-1{fill:#0073bb;}</style></defs><g id="图层_2" data-name="图层 2"><g id="图层_1-2" data-name="图层 1"><path class="cls-1" d="M47.53,26.07l-.74-1.25-3.23,2.06-1.17-2,2.9-1.81-.72-1.25-2.93,1.84-1-1.62,3.14-2-.72-1.22-4.31,2.7,4.33,7.29Zm7.41-9.32a2.24,2.24,0,0,0,.86.6,3.62,3.62,0,0,0,1.4.17,8.15,8.15,0,0,1,1.3.06,1.08,1.08,0,0,1,.48.19.93.93,0,0,1,.24.44,1,1,0,0,1-.09.91,1.43,1.43,0,0,1-.84.62c-.81.24-1.43-.12-1.88-1.12l-1.24.56c.74,1.81,1.92,2.47,3.52,2a2.71,2.71,0,0,0,1.76-1.37,2.8,2.8,0,0,0,.1-2,3.41,3.41,0,0,0-.62-1.16A2.15,2.15,0,0,0,59,16a4.37,4.37,0,0,0-1.62-.17A3.81,3.81,0,0,1,56,15.71a.77.77,0,0,1-.31-1.14,1.33,1.33,0,0,1,.75-.48,1.18,1.18,0,0,1,.9,0,1.53,1.53,0,0,1,.64.82l1.3-.5a2.58,2.58,0,0,0-1.23-1.61,2.39,2.39,0,0,0-2-.06,3.28,3.28,0,0,0-1.22.66,2.82,2.82,0,0,0-.58,1.08,2.62,2.62,0,0,0,.08,1.3A3,3,0,0,0,54.94,16.75Zm-5.78,8.14.52-.24.73-.34-.72-1.55L49,21.19l0-.13,0,0,.22-.08a4.68,4.68,0,0,1,.51-.21c.06,0,.11,0,.14,0a1.35,1.35,0,0,1,.51.14c.19.11.59.38,1.18.82l1.69,1.25,1.47-.72-1.43-1.14a9,9,0,0,0-1.29-.9,2.61,2.61,0,0,0-1-.33,2.05,2.05,0,0,0,.86-1.29,2.6,2.6,0,0,0-.23-1.67,2.9,2.9,0,0,0-.85-1.09,1.76,1.76,0,0,0-1-.39h0a7.36,7.36,0,0,0-.74.16c-.21.08-.48.22-.78.35l-2.6,1.28L49,24.46Zm-1.71-7,1-.45c.22-.13.43-.21.57-.29l.46-.16a.77.77,0,0,1,.27,0,.64.64,0,0,1,.27.11,1,1,0,0,1,.4.51,1.22,1.22,0,0,1,.16.68.91.91,0,0,1-.25.51,2.44,2.44,0,0,1-.6.37,1.72,1.72,0,0,1-.43.22l-.3.13-.62.32ZM137,75.61a5.73,5.73,0,0,0-2.42-.53h0a4.79,4.79,0,0,0-3.22.9,3.07,3.07,0,0,0-1.1,2.39,2.92,2.92,0,0,0,1,2.36,5,5,0,0,0,3.23,1.1h.08a4.8,4.8,0,0,0,3.14-.84,3.14,3.14,0,0,0,1.18-2.42,3.4,3.4,0,0,0-.42-1.74A3.6,3.6,0,0,0,137,75.61Zm-.35,4.29a3.37,3.37,0,0,1-2.14.47,3.63,3.63,0,0,1-2.18-.6,1.76,1.76,0,0,1-.67-1.36,1.66,1.66,0,0,1,.77-1.37,3.41,3.41,0,0,1,2.11-.5h.05a3.4,3.4,0,0,1,2.13.61,1.71,1.71,0,0,1,.66,1.38A1.78,1.78,0,0,1,136.68,79.9ZM25,48a2.11,2.11,0,0,0,1.38-.18,3.18,3.18,0,0,0,1.2-1.26,2.76,2.76,0,0,0,.46-1.7,2.13,2.13,0,0,0-.61-1.35A10.21,10.21,0,0,0,25.44,42l-3.72-2.38L21,40.85l3.89,2.49a5.53,5.53,0,0,1,1.32,1,1,1,0,0,1,.29.68,1.3,1.3,0,0,1-.22.78,1.4,1.4,0,0,1-.73.64,1.44,1.44,0,0,1-.95-.09,13.08,13.08,0,0,1-1.18-.68L19.6,43.19l-.72,1.21,3.77,2.4A8.91,8.91,0,0,0,25,48Zm15-16.56-3.37-8.2-1.14.94,2.63,6-5.24-3.76-1.14,1,7.12,5ZM30.81,41.1l-4.16-3.56,5.9,1.39.9-1.1-6.39-5.47-.82,1L30.51,37l-6.06-1.44-.84,1.08L30,42.13ZM36,35l-5.79-6.11-1,1L35,36Zm39.93-14H74.4c-1.54,0-3.05.06-4.6.19V25A50.34,50.34,0,0,0,24.43,69.73h9.44A40.9,40.9,0,0,1,69.8,34.43V35a8,8,0,0,1-5,7.14A34.28,34.28,0,0,0,40.57,69.73h9.18a25.95,25.95,0,0,1,47.55-8l.15.25c.26.43.51.87.75,1.33s.5,1,.73,1.53l.16.34a25,25,0,0,1,1.46,4.53h9.18A34.27,34.27,0,0,0,85.48,42.17a8,8,0,0,1-5-7.14v-.6a40.88,40.88,0,0,1,35.92,35.3h9.45A50.34,50.34,0,0,0,80.5,25V21.25C79,21.12,77.45,21.06,75.91,21.06Zm40.63,16.33,1-1-2.77-2.72L116.33,32l2.47,2.45,1-1-2.47-2.45,1.28-1.36,2.66,2.63,1-1-3.68-3.62-5.71,6.2Zm2.26,1.72a2.8,2.8,0,0,0,.49,2.4,2.54,2.54,0,0,0,1.62,1.07,3.69,3.69,0,0,0,2.24-.42l-.4-1.41a2.69,2.69,0,0,1-1.43.37,1.24,1.24,0,0,1-.88-.52,1.49,1.49,0,0,1-.21-1.41,4.22,4.22,0,0,1,1.49-1.77,4,4,0,0,1,2-1,1.41,1.41,0,0,1,1.26.61,1.33,1.33,0,0,1,.26,1,1.92,1.92,0,0,1-.48,1.08l1.12.84a3.2,3.2,0,0,0,.82-1.67,2.63,2.63,0,0,0-.53-2A2.71,2.71,0,0,0,124,35a5.24,5.24,0,0,0-3.25,1.3A5.14,5.14,0,0,0,118.8,39.11ZM64.53,19.46,62.75,11.1l-1.35.29,1.78,8.36ZM21.15,62.07,16,60.47l6-1.09L22.33,58l-7.94-2.45L14,56.82l5.31,1.65-6.11,1.1-.39,1.31,8,2.46ZM122.91,46.72l3.17-1.82,1.31,2.41-3.18,1.84.7,1.22,7.23-4.19L131.45,45l-2.85,1.65-1.3-2.44,2.84-1.66-.67-1.21-7.23,4.19ZM98.22,19.65l2.61,1.23.58-1.32-2.59-1.23.83-1.84,3,1.43.57-1.32L99,14.6,95.5,22.35l1.27.6ZM110,31.19l4.31-5.53L115.85,27l.88-1.13-4.22-3.48-.9,1.12,1.58,1.28-4.3,5.56ZM67.38,11.84l.77,7.07,1.35-.15-.76-7.08,2-.23L70.58,10l-5.35.61.16,1.43ZM75,18.36l1.38,0,.1-3.59,2.63-4.9-1.56,0-1.68,3.33L74.34,9.77l-1.6,0,2.35,5Zm15.49,2.43a3.06,3.06,0,0,0,1.18.16,2.71,2.71,0,0,0,1.33-.5,5,5,0,0,0,1.85-2.9,5.17,5.17,0,0,0,0-3.43,3,3,0,0,0-2-1.8,2.9,2.9,0,0,0-1.21-.14,1.86,1.86,0,0,0-.57.11,3.28,3.28,0,0,0-1.52,1.07,5.92,5.92,0,0,0-1.12,2.28,5.17,5.17,0,0,0,0,3.46A3,3,0,0,0,90.47,20.79ZM89.87,16A3.86,3.86,0,0,1,91,14a2.11,2.11,0,0,1,.71-.32,1.59,1.59,0,0,1,.81,0,1.62,1.62,0,0,1,1.09,1.08,3.92,3.92,0,0,1-.11,2.27,3.72,3.72,0,0,1-1.13,2,1.62,1.62,0,0,1-.7.34,1.39,1.39,0,0,1-.78,0,1.67,1.67,0,0,1-1.1-1.11A3.73,3.73,0,0,1,89.87,16Zm36.42,37.81,5.06-2-4,4.65.5,1.32L134.7,55l.84-.35-.48-1.21-.35.13-4.81,1.94,4.15-4.75-.5-1.28-7.71,3.11Zm8.39,4.89a5.79,5.79,0,0,0-2.4.14,5.12,5.12,0,0,0-2.9,1.74,3.07,3.07,0,0,0-.45,2.59,3,3,0,0,0,1.55,2.09,4.84,4.84,0,0,0,3.37.2l.79-.23a4.44,4.44,0,0,0,2.11-1.45,3.17,3.17,0,0,0,.53-2.66,3.29,3.29,0,0,0-.85-1.6,3.25,3.25,0,0,0-1.67-.82Zm1.2,2.78a1.64,1.64,0,0,1-.36,1.51,2.23,2.23,0,0,1-.87.65,4,4,0,0,1-1.09.37,3.39,3.39,0,0,1-2.23,0,1.53,1.53,0,0,1-1-1.17,1.63,1.63,0,0,1,.35-1.51,3.65,3.65,0,0,1,2-1.06,4.32,4.32,0,0,1,2-.07l.22.08A1.72,1.72,0,0,1,135.88,61.48Zm-5.75,7,.36,4.91,1.4-.12-.25-3.52,3-.22,3.83-.3-.09-1.41-3.73.31Zm-8,50.59a2.69,2.69,0,0,0-.84.24,11.43,11.43,0,0,0-1.3,1.06c-.49.44-.94-.21-1.08-.38s0-.56,0-.65-.05-.48,0-.89-.51-.32-.51-.32l-.21,0a1.57,1.57,0,0,0-.33.19l-.35.35a2.21,2.21,0,0,0-.25.42,3.59,3.59,0,0,1-.27.49l.1.08c.3.19.38,0,.62-.08s.22,0,.33.15a1.63,1.63,0,0,1,.1.7.69.69,0,0,0,.08.48c.13.17.24.17.59.19s.3.22.3.22,0,.16,0,.16c-.19.19-.79,1-.92,1.19a4,4,0,0,0-.55.83c0,.11-.35.56-.35.62a2,2,0,0,1-.33.54c-.16.13-.13.19-.13.19s.18,0,.46,0,.67-.46.84-.72.51-.7.68-.94.62-.75.76-1,.24-.19.24-.19.27.19.27.19a6.6,6.6,0,0,1,.35.76l.21.65V124c0,.11-.17.68-.17.76s0,.19-.08.38-.22.18-.27.24-.14,0-.2,0a1.43,1.43,0,0,1-.32-.11l-.16-.08v.1a1,1,0,0,0,.38.44,2,2,0,0,0,.51.05c.16,0,.43-.13.73-.58a1.47,1.47,0,0,0,.28-1.08,6.06,6.06,0,0,0-.07-1,4.66,4.66,0,0,0-.59-1.7l0-.14s.11-.11.46-.43.44-.21.52-.29.35-.27.46-.38a1.41,1.41,0,0,0,.32-.83C122.52,119,122.28,119.06,122.17,119.06Zm-7.42-3.66a.53.53,0,0,1-.22-.28l-.24-.27-.24-.06s-.38-.05-.41,0-.24-.05-.29,0-.44.16-.44.37a2,2,0,0,0,.08.55,2.73,2.73,0,0,0,.29.54c.06.08.35.49.49.49s.29.08.35,0,.35,0,.35,0l.16,0,.24-.21a1.45,1.45,0,0,1,.33-.08c0,.06.48,0,.48,0a.66.66,0,0,0,.11-.19,3.18,3.18,0,0,1,0-.83,1.47,1.47,0,0,1,.3-.46l.22-.16a2,2,0,0,0,.11-.3,3.42,3.42,0,0,0,.17-1s.14-.7.05-.78l0-.24a1.87,1.87,0,0,0-.3-.41.51.51,0,0,0-.19-.08l-.43-.22h-.27s-.35,0-.43.1-.25.24-.33.3-.16.32-.08.43a3.21,3.21,0,0,1,.32.78,7.06,7.06,0,0,1,.07,1.46s.08.3,0,.33S115,115.48,114.75,115.4ZM65,95.46V86.31H63.61a3.16,3.16,0,0,1-1.08,1.46A5.42,5.42,0,0,1,61,88.6v1.6a6,6,0,0,0,2.25-1.33v6.59Zm49.45,26.28a3.64,3.64,0,0,1-.16-.36,2.09,2.09,0,0,1-.16-.27l-.08.08a2.09,2.09,0,0,0-.3.65,2.67,2.67,0,0,0,.44,1.81c.51.76.73.54.87.41s.65-.34.54-.75c0,0-.32-.49-.51-.71S114.54,121.78,114.49,121.74ZM71,94.16h0a.93.93,0,0,1-.67-.24,1.1,1.1,0,0,1-.33-.76l-1.7.19a3,3,0,0,0,.84,1.7,2.6,2.6,0,0,0,1.72.57c.09,0,.14,0,.19,0a3.05,3.05,0,0,0,2.25-1.08,5.83,5.83,0,0,0,.91-3.62,5.52,5.52,0,0,0-.89-3.51A2.8,2.8,0,0,0,71,86.31a2.89,2.89,0,0,0-2.1.83A3.13,3.13,0,0,0,68,89.38a2.9,2.9,0,0,0,.78,2.16,2.39,2.39,0,0,0,1.84.84,1,1,0,0,0,.29,0,2,2,0,0,0,1.35-.72,3.79,3.79,0,0,1-.48,2A1.07,1.07,0,0,1,71,94.16Zm.87-3.45a1.14,1.14,0,0,1-1.73,0,2,2,0,0,1-.35-1.3,1.83,1.83,0,0,1,.33-1.23.93.93,0,0,1,.8-.38H71a1.16,1.16,0,0,1,.82.45,2,2,0,0,1,.37,1.32A1.89,1.89,0,0,1,71.82,90.71Zm45.84,25.57a2.68,2.68,0,0,1,.84-.6c.4-.13.48.09.48.09l.11.27,0,.3,0,.21v.25a3.34,3.34,0,0,0-.14.57l0,.37a1.88,1.88,0,0,1,.22-.37c.06-.06.28-.36.28-.36a5.59,5.59,0,0,1,.43-.48.57.57,0,0,0,.16-.35c0-.21,0-.57,0-.62a1.8,1.8,0,0,0-.32-.49.83.83,0,0,0-.43-.24c-1.25-.2-2.39,1.31-3,2.14a13.58,13.58,0,0,0-1.51,3.18,3.8,3.8,0,0,1-.14.58l-.08.25c.22.11.38,0,.65-.46s.12-.45,1-2A8,8,0,0,1,117.66,116.28Zm-37.16-.6V109a34.34,34.34,0,0,0,28.29-24.37H99.24a25.93,25.93,0,0,1-48.41,0H41.52A34.31,34.31,0,0,0,69.8,109v6.73a40.93,40.93,0,0,1-35.14-31.1H25.08A50.26,50.26,0,0,0,74.4,125.26h1.51a50.27,50.27,0,0,0,49.32-40.68h-9.59A40.93,40.93,0,0,1,80.5,115.68Zm50.41-20.89-3.34-1.1L127.16,95l3.31,1.09,3.84,4,.11-.35.38-1.21-.38-.35L132.14,96l2.3-.34,1.3-.21.5-1.55-1.79.31ZM79.35,86.31l-1.22,1.86-2.67,3.91v1.54h3.73v1.84h1.64V93.62h1.11V92.08H80.83V86.31Zm-.16,5.77H77.11l1-1.56L79.19,89Zm57.1-7a4.71,4.71,0,0,0-1.77-.79,2.15,2.15,0,0,0-.47-.12,5.5,5.5,0,0,0-2.36,0,3.25,3.25,0,0,0-2.51,2.66,5,5,0,0,0,.07,1.76,3.66,3.66,0,0,0,.67,1.43l3.26.64.53-3-1.37-.28L132.06,89,131,88.83a2.7,2.7,0,0,1-.35-.87,2,2,0,0,1,0-.89,1.7,1.7,0,0,1,.92-1.27,3.67,3.67,0,0,1,2.36-.14,4,4,0,0,1,.62.14,2.74,2.74,0,0,1,1.31.82,1.86,1.86,0,0,1,.43,1.54,1.68,1.68,0,0,1-.52.94,1.87,1.87,0,0,1-1.09.37l.08,1.43a2.79,2.79,0,0,0,1.94-.61,3,3,0,0,0,1-1.86,3.47,3.47,0,0,0-.15-1.83A3.62,3.62,0,0,0,136.29,85.11ZM19.73,71.89l.18-1.48-1.81-.8.32-2.78,1.92-.39.2-1.54L15.4,66,12,66.71l-.17,1.48,3.57,1.67Zm-4.34-4.48L17,67.12,16.76,69l-1.38-.61-1.59-.7Zm60.94,9.42v-7.2l9.94,0,3.54-6.8L82.3,61.53l-6,7.52V66.84l3.38-7-4.56-6.16-4.56,6.16,3.38,7v2.2l-6-7.52L60.49,62.8,64,69.6l9.94,0v7.2l-4.4-3.45H24.3v.32c0,1.52.05,5.15.19,6.61H69.6l5,4.2h1.51l4.65-4.2H126c.13-1.46.3-5.09.3-6.61v-.32H80.78ZM86.1,94.16H86a.93.93,0,0,1-.67-.24,1.1,1.1,0,0,1-.33-.76l-1.7.19a2.87,2.87,0,0,0,.87,1.7,2.48,2.48,0,0,0,1.7.57c.08,0,.13,0,.19,0a3,3,0,0,0,2.24-1.08,5.64,5.64,0,0,0,.91-3.62,5.46,5.46,0,0,0-.89-3.51,2.79,2.79,0,0,0-2.26-1.07,2.91,2.91,0,0,0-2.11.83,3.13,3.13,0,0,0-.81,2.24A2.9,2.9,0,0,0,84,91.54a2.41,2.41,0,0,0,1.84.84,1,1,0,0,0,.3,0,2,2,0,0,0,1.35-.72,3.86,3.86,0,0,1-.49,2A1,1,0,0,1,86.1,94.16ZM87,90.71a1.07,1.07,0,0,1-.86.38,1.13,1.13,0,0,1-.87-.41,2.1,2.1,0,0,1-.35-1.3,1.83,1.83,0,0,1,.33-1.23.93.93,0,0,1,.8-.38h.09a1.14,1.14,0,0,1,.81.45,2,2,0,0,1,.4,1.32A1.83,1.83,0,0,1,87,90.71ZM22.19,93.26a2.4,2.4,0,0,0-1-.66,3.69,3.69,0,0,0-1.37-.17c-.25,0-.49.06-.73.11a5.76,5.76,0,0,0-1.14.31,6.4,6.4,0,0,0-1.78.91,3.42,3.42,0,0,0-1,1,2.57,2.57,0,0,0-.38,1.14,4,4,0,0,0,.28,1.46l.83,2.43,3.19-1.14L23.73,97l-.87-2.49A3.33,3.33,0,0,0,22.19,93.26Zm-3.1,3.92L16.76,98l-.21-.62a5.36,5.36,0,0,1-.29-1.12,1.2,1.2,0,0,1,.17-.75,1.87,1.87,0,0,1,.65-.67,6,6,0,0,1,1.32-.64l.71-.21a4.84,4.84,0,0,1,.7-.16,2.11,2.11,0,0,1,.84.06,1,1,0,0,1,.51.33,2.66,2.66,0,0,1,.45.89l.35,1Zm2.34-7-.27-1.46-1.94-.24-.49-2.75,1.73-1-.26-1.51-4,2.27-3.65,2L12.8,89l3.37.45Zm-5.25-3.09,1.25-.66.34,1.89-1.59-.18L14.56,88Zm23.9,28.85a1.44,1.44,0,0,0-.19-.41h-.43l-.43-.11c-.06,0-.19.16-.19.16l-.09.14s-.54.4-.59.45l-.82.61a5.56,5.56,0,0,1-.81.6,1.34,1.34,0,0,1-.89.31,7.45,7.45,0,0,1-1.35-.54,8.07,8.07,0,0,0-.75-.39,4.51,4.51,0,0,0-.59-.09,1.52,1.52,0,0,0-.46-.1c-.22,0-.22.05-.22.05v.13l0,.25a1,1,0,0,0,.42,1.19c.27.16.49.16.82.32s.1.3-.06.47a5.64,5.64,0,0,1-.57.34c-.08.05-.6.24-.6.24a8.54,8.54,0,0,1-1.08.24l-.38.11-.37.07-.73.24-.3.1-.19,0-1.43,0c-.08,0-.11,0-.41-.22S27,120,27,120c.24.68.67.78.67.78s.43.09.43.09a7,7,0,0,0,2.91.29c.73-.16,1.82-.51,1.82-.51H33v.21l-.08.17v.34l-.25,1.36-.22.77a5.54,5.54,0,0,0-.32,2.16c0,.49,1,1.69,1.34,1.82s.38,0,.38,0l.11-.3v-.41l-.1-.54-.06-.29-.13-.41-.26-1.08s0-1.19,0-1.32.18-1.14.18-1.14l.13-.26.12-.33v-.29l-.11-.22-.22-.22a.23.23,0,0,1-.21-.16,11.39,11.39,0,0,1,2.24-.93.61.61,0,0,1,.63,0,3,3,0,0,0,1,.73,1.26,1.26,0,0,0,1.4,0l.11-.21-.11-.38-.32-.41L38,119l-.27-.14-.08-.08-.27-.25c-.22-.13.27-.32.27-.32A6.24,6.24,0,0,0,40,116.58C40.15,116.34,40.05,116.07,40.08,115.94ZM19.81,73.54l-8.32-.27,0,1.43,8.28.24Zm-.16,3.21-1.4.07.19,3.48-6.81.39.08,1.43,8.21-.51Zm94.51,41.77a.91.91,0,0,1-.08-.32s-.16-.3-.37-.3a.43.43,0,0,1-.38-.41.3.3,0,0,0-.11-.27s-.13-.25-.26-.25l-.17-.32c-.05-.06-.24-.22-.32-.22h-.32l-.14,0s-.08,0-.08.29a4,4,0,0,0,.24,1.3,3.81,3.81,0,0,0,.82,1.08s.41.22.49.17a.58.58,0,0,0,.49-.19A.48.48,0,0,0,114.16,118.52Zm-4.07,12.39a4.3,4.3,0,0,0-.66,0l-.69.08a4.57,4.57,0,0,0-.95.1,3.06,3.06,0,0,1-.73.11l-.46,0h-.46l-.53,0a3.25,3.25,0,0,1-.73-.14,9.18,9.18,0,0,0-1.41-.46,2.07,2.07,0,0,0-.72.12c-.19.08-.08-.13-.08-.13,0-.21-.17-.49-.19-.62a7,7,0,0,1-.13-.79c0-.54.6-1,.76-1.07a2.25,2.25,0,0,0,.57-.43c.14-.13.14-.56.17-.72a.66.66,0,0,0-.08-.41c0-.11-.22,0-.22,0l-.35.16-.3.13-.54.38a1.67,1.67,0,0,0-.43.37l-.17-.27-.15-.35-.19-.79a2.16,2.16,0,0,0-.07-.51,7.28,7.28,0,0,0-.67-1.25.73.73,0,0,0-.38-.32l-.4-.11-.14,0a2.31,2.31,0,0,0-.27.06l-.24.15,0,.14a1.91,1.91,0,0,1,0,.21.94.94,0,0,0,.13.25l.27.22a8.56,8.56,0,0,1,1,1.78c.11.19.18.63.23.71a.87.87,0,0,1,0,.4,1,1,0,0,0,.22.49c.1.08.1.35.1.35a1.64,1.64,0,0,1-.25.51,4.18,4.18,0,0,1-.29.38s-.17.08-.2.19-.27.26-.27.26c-.46.24-.48.41-.51.46a.79.79,0,0,1,0,.35.37.37,0,0,0,.13.32c0,.06.3.09.62.17a.8.8,0,0,0,.59-.21s0,0,.08-.08a.37.37,0,0,0,.1-.17,2.13,2.13,0,0,0,.18-.37h0a.45.45,0,0,1,.11-.13c.16-.16.27.19.32.3a1.17,1.17,0,0,1,0,.53c0,.09,0,0,.05.82a9.48,9.48,0,0,1-.15,2.13,5.5,5.5,0,0,1-.22.94c0,.11-.25.54-.25.59s-.19.16-.21.19-.14.19-.11.24.18,0,.24,0,.14,0,.14,0,.24,0,.46-.16a2.78,2.78,0,0,0,.46-.54l.08-.11a1.11,1.11,0,0,1,.11-.27c.08-.16.3-.77.3-.77l0-.14,0-.22.17-.35v-.13l0-.25s0-.21,0-.24,0-.19,0-.19v-.18l0-.14v-.16s-.08-.44-.1-.46-.13-.76-.13-.76,0-.19.54.06l3,1.56a4.75,4.75,0,0,0,1.86.36,2.81,2.81,0,0,0,1.17-.51,1,1,0,0,0,.19-.29s.08-.35,0-.41.13-.32.13-.32.46-.35.52-.37S110.09,130.91,110.09,130.91ZM55,125.75c-.32,0-.19-.21-.19-.21l.14-.25s.09-.37.09-.37l-.06-.33s0-.19-.1-.22a1.72,1.72,0,0,1-.27-.13.52.52,0,0,0-.52.05,2.36,2.36,0,0,1-.38.57,4.19,4.19,0,0,0-.3.45c-.19.3-.37.24-.51.27a5.65,5.65,0,0,1-.73,0l-.76,0a3.61,3.61,0,0,0-.51,0c-.1,0-.46,0-.57.19a.7.7,0,0,0-.11.34,1.08,1.08,0,0,0,0,.41.49.49,0,0,0,.29.33,1.55,1.55,0,0,0,.43,0s.24,0,.3.16-.14.25-.14.25l-.13,0-.17.14-.27.21-.46.35-.27.21-.35.35a2.45,2.45,0,0,0-.41.37c-.05.14-.14.49-.14.49l0,.22a1.32,1.32,0,0,0,.49.54,1.53,1.53,0,0,0,.38.14c.05,0,.21,0,.21,0a3.4,3.4,0,0,1,.81-.2c.27,0,.06.24.06.24s-.14.16-.17.18a3.9,3.9,0,0,1-.28.51l-.21.46a.48.48,0,0,0-.14.06l-.13.11-.59,0h-.6l-.27,0a1.71,1.71,0,0,1-.35.06,1.33,1.33,0,0,1-.35,0l-.28-.13a.17.17,0,0,0-.15-.06.29.29,0,0,0-.14.14l.05.11a2.29,2.29,0,0,0,.57.38,3.72,3.72,0,0,0,.37.16c.06,0,.65,0,.76,0a.71.71,0,0,1,.33.09c.13,0,.07.08.1.13a1.57,1.57,0,0,1,0,.16l-.11.22c0,.05-.57.83-.57.83s-.3.3-.16.43a.27.27,0,0,1,0,.3c-.19.13-.64-.27-.89-.6A11.44,11.44,0,0,0,46,132.58c-.08-.06-.08-.3-.08-.3l0-.27-.08-.27-.16-.32a3.8,3.8,0,0,1-.18-.6.53.53,0,0,1,0-.22l0-.21.11-.24a1.5,1.5,0,0,1,.36-.43l.51-.4c.38-.38.68-.24.87-.3a.89.89,0,0,0,.56-.48c.17-.29-.1-.59-.23-.73s-.65-.43-.89-.35-.32.43-.32.43a.78.78,0,0,0,0,.43.23.23,0,0,1,0,.37,3.21,3.21,0,0,1-.81.73,2.45,2.45,0,0,0-.54.43,2.65,2.65,0,0,0-.34.43c-.08.13-.19.59-.1.67a2.13,2.13,0,0,1,0,.68c0,.32-.35.24-.35.24l-.21-.06-.08-.05a.67.67,0,0,0-.41.1c-.19.14-.22.3-.11.35a1.84,1.84,0,0,0,.78.3,4.36,4.36,0,0,1,1.72.74,3.61,3.61,0,0,1,.91.9c.11,0,.67.95,1,1.41a11.28,11.28,0,0,0,1.07,1.25c.22.16.68.38.81.46l.94.36c.84.36,1.11.3,1.38,0a.4.4,0,0,0,0-.54s-.48-.38-.62-.46-.75-.41-.86-.46l-1.07-.69-.49-.32-.08-.11s0-.16.11-.11.3-.1.3-.1.33-.7.36-.78a9.1,9.1,0,0,1,.57-1.14.51.51,0,0,1,.51-.18c.08-.05.33.22.71,0a.64.64,0,0,0,.27-.67,1.27,1.27,0,0,0-.24-.19,1.69,1.69,0,0,0-.3-.11.31.31,0,0,1-.19,0c-.08-.05,0-.16,0-.16s.49-.83.49-.83l.27-.35.3-.3c.16-.15.3-.2.81-.29s.38-.24.38-.29a3.26,3.26,0,0,0-.48-.3c-.05,0,0-.27.14-.43a.85.85,0,0,0-.21-.68.23.23,0,0,0-.33,0,1.63,1.63,0,0,0-.19.27l-.3.43c-.14.27-.59.29-.59.29l-.36.05c-.54.11-.48-.13-.48-.13.11-.41,1.71-1.48,1.9-1.58a2,2,0,0,1,1.43-.32c.84.11.75.28,1.3.15s.54-.3.65-.49-.16-.46-.24-.65S55,125.75,55,125.75Zm35.06,9.3a.59.59,0,0,0-.4-.11,3.91,3.91,0,0,1-1.21.13,3.33,3.33,0,0,0-1.2.18,2.67,2.67,0,0,1-.78.1c-.22-.06,0-.24,0-.24a3.76,3.76,0,0,0,.84-.81c.89-1.13.66-1.64.66-1.72s-.27-.43-.78-.66a1.81,1.81,0,0,0-1.54.27,7.72,7.72,0,0,0-1.38,1.12,2,2,0,0,0,0,.4c0,.06.16.22.18.25l.25.17a.85.85,0,0,0,.83,0c0-.08.14-.16.22-.27s0,0,.43-.29.39.05.39.05c0,.95-1.18,2-1.18,2-.06.16-.33.16-.33.16a5.64,5.64,0,0,0-2.49,1c-.56.4-.51.62-.51.62a.79.79,0,0,0,.56.89.81.81,0,0,0,.75-.12c1.12-1,5.79-1.53,5.87-1.53a3.19,3.19,0,0,0,.63-.08c.16-.06.27-.4.45-.62a.75.75,0,0,0,.22-.48C90.54,135.38,90.27,135.21,90.08,135.05Zm-19.29-5.34a6.45,6.45,0,0,0-1.25.67.92.92,0,0,0-.43.76c0,.13.32.1.32.1l.32-.05a.5.5,0,0,0,.36-.08c0-.08.32-.24.59-.42a4.6,4.6,0,0,1,1.14-.4,5.38,5.38,0,0,1,.62,0l.46.09c.11,0,.24.38.24.38a2,2,0,0,1-.25.91s.08,0-.38.73a4.54,4.54,0,0,1-1.42,1.31c-.13.11-.21,0-.26,0s.05-.3.05-.3l.14-.08c0-.08.27-.19.3-.32s.29-.38.38-.35.24-.13.24-.13l.13-.22L72,132.1l0-.33-.19-.1-.08-.14-.22-.09-.13-.23c-.46-.55-.52-.28-.52-.28a1.7,1.7,0,0,0,0,.43.89.89,0,0,1-.14.32,5.75,5.75,0,0,0-1,.65c-.08.13-.22.29-.14.45a2.05,2.05,0,0,0,.46.33,3.09,3.09,0,0,0,.16.27c0,.05,0,.33,0,.33l-.11.08-.22.18-.17.14-.21,0-.22,0-.19.1-.08.06-.13-.09,0-.15,0-.25a.8.8,0,0,0,.14-.24,3.4,3.4,0,0,1,.11-.49l0-.32v-.32c.06-.25-.26-.46-.43-.46s-.49.15-.76.72a6,6,0,0,0-.5,1.48c0,.19,0,.27.09.3s.18.17.18.17.25.34.35.43.27-.06.35-.11.06-.1.22-.13a.11.11,0,0,1,.16,0c0,.32.32.33.41.33s.27-.22.37-.22,0,.28,0,.36l-.11.26a5.92,5.92,0,0,1-.24.78c0,.11-.38.36-.38.36l-.2.08a.56.56,0,0,1-.4.1c-.27-.06-.22.08-.25.08a1.52,1.52,0,0,0,.06.32c0,.08.24.3.29.3s.11.22.11.22a1.85,1.85,0,0,1-.11.67,1.36,1.36,0,0,1-.14.28s-.49,0-.51,0a3.9,3.9,0,0,1-.6.08h-.11a2,2,0,0,0-.4.05s-.14,0-.22.05,0,.24,0,.24.18.27.24.36a.92.92,0,0,0,.35.24s0,0,.1,0a1.82,1.82,0,0,0,.36,0l1.45,0a3,3,0,0,1,1.57.33.57.57,0,0,0,.54.33,1.82,1.82,0,0,0,1-.45c.24-.17.19-.3.19-.3s0-.32-.4-.54a10.11,10.11,0,0,0-2.43-.5c-.19,0-.13-.49-.13-.49a1.06,1.06,0,0,1,.24-.67c.55-.49,1-.21,1.3-.26s.49,0,.63-.25a.45.45,0,0,0-.16-.59,1.58,1.58,0,0,0-.6-.11l-.19,0h-.32l-.21-.11.19-.78a4.14,4.14,0,0,1,.17-.51,13.38,13.38,0,0,0,2.71-2.42,4.37,4.37,0,0,0,.69-1.72,1.21,1.21,0,0,0-.24-.91C72.66,128.89,71.17,129.56,70.79,129.71Zm-3.49,5.7c0-.24-.14-.08-.14-.08s0,.06-.11.11l-2.8,3h0c-.11.1-.27.18-.33.1s.09-.78.2-1l.16-.19c.33-.43,1-1.23,1.14-1.53a2.29,2.29,0,0,0,.31-1.18,1.63,1.63,0,0,0-.08-.38A13,13,0,0,1,66.81,132a2.06,2.06,0,0,1,.27-.26,3,3,0,0,0,.59-.49.51.51,0,0,0,0-.75c-.11-.16-.41-.14-.59-.12s-.08,0-.11,0-.82.19-.82.19a4.27,4.27,0,0,1-.86.18,4,4,0,0,0-.68.26.83.83,0,0,0-.29.44l0,.1c0,.11.35.3.35.3a1.06,1.06,0,0,0,1.13.06.14.14,0,0,1,.22.06s-.8,2.21-1,2.05a1.3,1.3,0,0,0-.75-.15,1.38,1.38,0,0,0-.74.27,1.75,1.75,0,0,0-.52,1.29.94.94,0,0,0,1,.63.56.56,0,0,0,.27-.08,1.79,1.79,0,0,0,.54-.4l-.54,1-1.2,2a1.88,1.88,0,0,0-.09.27.48.48,0,0,0,.08.27.8.8,0,0,0,.24.27,1.15,1.15,0,0,0,.22.09.74.74,0,0,0,.73-.19l0-.08a7.14,7.14,0,0,0,.68-.86c.38-.43,1.58-1.93,2.07-2.6Zm-2.78-.33a2.32,2.32,0,0,1-.25.21c-.24.19-.43.29-.65,0a.91.91,0,0,1,.39-.67c.11,0,.19-.11.27-.14a.8.8,0,0,1,.54-.1C65,134.49,64.9,134.8,64.52,135.08ZM75.15,0A75.15,75.15,0,1,0,150.3,75.15,75.15,75.15,0,0,0,75.15,0Zm0,144.83h0a69.68,69.68,0,1,1,0-139.35h0a69.68,69.68,0,0,1,0,139.35Z"/></g></g></svg>