<svg xmlns="http://www.w3.org/2000/svg" xmlns:xlink="http://www.w3.org/1999/xlink" viewBox="0 0 118.68 118.68"><defs><style>.cls-1{fill:#c0c1c0;}.cls-1,.cls-2,.cls-3,.cls-4,.cls-5,.cls-6,.cls-7,.cls-8{fill-rule:evenodd;}.cls-2{fill:#e9e9e8;}.cls-3,.cls-8{fill:#fffdfc;}.cls-4{fill:#96372d;}.cls-5{fill:#151515;}.cls-6{fill:#e57c35;}.cls-7{fill:#fff500;}.cls-8{stroke:#fffdfc;stroke-width:0.6px;}</style><symbol id="新建符号" data-name="新建符号" viewBox="0 0 118.68 118.68"><path class="cls-1" d="M118.68,59.34a59.34,59.34,0,1,1-17.38-42A59.37,59.37,0,0,1,118.68,59.34Z"/><path class="cls-2" d="M117.18,59.34a57.84,57.84,0,1,1-16.94-40.9A57.89,57.89,0,0,1,117.18,59.34Z"/><path class="cls-3" d="M29.1,90.93a3.41,3.41,0,0,0,.23,2,2.61,2.61,0,0,1,0,1,2.46,2.46,0,0,0-.06.6c-.06.15-.92.49-1,.28a6,6,0,0,0-.37-.76s.14-.23-.94-.54-.28-.34-.1-.29a.78.78,0,0,0,1-.27c.33-.52.19-.45.49-.76a7.49,7.49,0,0,0,.76-1.27m-8.39,5.74a4.23,4.23,0,0,0,.5-.06c.09,0,.19,0,.31,0a.56.56,0,0,1,.18,0,5.55,5.55,0,0,1,.92-.15s.41-.23.87.31a.75.75,0,0,0,1.22-.23c.18-.23.1-.52,0-.87-.23-.4-.12-.62-.36-.76s0-.21-.14-.35-.26-.4-.57,0-.16.22-.26.33-.11.35-.21.4a1.07,1.07,0,0,1-.61.6c-.37.11-1.11.57-1.24.48s0,.13-.13,0-.22.1-.22.1h0l-.3.18M18.2,98.41c-.27-.19-.12-.44.11-.63s.48-.09.47,0c.78.38,1.44.51,3.89.17a8,8,0,0,0,3.85-1.53s.21,0,.45.15.85.38,1.51.67a2,2,0,0,0,.3.14,21.06,21.06,0,0,1,3,1.23.71.71,0,0,1-.05,1.08,4.83,4.83,0,0,1-.72.13c-.35.09-.73.24-1.09.32s-.77.07-.83.11a12.88,12.88,0,0,1-1.33.3,3.64,3.64,0,0,1-.58,0c-.31,0-.63.08-.7.08a.54.54,0,0,1-.49.08c-.07.08-.91-.52-.71-.7s.24-.5.75-.53,3.15-.63,3.15-.63.47-.11-.11-.24l-1.71-.4s-.77-.4-.9-.71-.1-.52-.54-.35-3.26,1.62-3.59,1.75a13.48,13.48,0,0,1-1.91.79,3.58,3.58,0,0,0-1,0c-.09,0-.23-.06-.31-.08-1-.25-.88-.68-.95-1.2M23,99.86l.29-.09s.15,0,.14.11,1.53.67,1.53.67h.06l.23.13s.55.12.6.2,1.08.4,1.18.45.22,0,.29.08l.26.12a2.34,2.34,0,0,1,.3.11.51.51,0,0,0,.18.08.28.28,0,0,0,.17,0,2.81,2.81,0,0,1,.75.37,1.67,1.67,0,0,1,.36.61s0,.39-.66.57c-.12,0-.21.18-.31.13s-.19-.12-.3-.17l-.83-.43h0l-1.89-.8h0l-.8-.28h-.22l-.29-.17h0l-.33,0h0l-.4-.16h0l-.26-.08s-.43-.37-.37-.52a.92.92,0,0,0,0-.43h0l.33-.43"/><path class="cls-3" d="M77.93,101.1c.21-.18.19-.17.33-.22a1.59,1.59,0,0,1,.42.09h0l.1.06a3,3,0,0,1,.29.18,6.28,6.28,0,0,1,.22.61c0,.05,0,.08,0,.09a4.15,4.15,0,0,0,.16.42,2.55,2.55,0,0,0,.17.6c0,.07,0,.13,0,.2s.14.54.19.85a1.59,1.59,0,0,0,.08.27.18.18,0,0,1,0,.1.15.15,0,0,0,0,.1s.09.35.22.09a2.23,2.23,0,0,0,.18-.43h0l.11-.31h0v-.16s-.06-.33-.21-.41A3.39,3.39,0,0,1,80,103c-.1-.09-.19-.14-.18-.12s0-.07.08,0,.18,0,.26.09.24,0,.38.06a.86.86,0,0,0,.43.09h0l.1,0h0l.29,0a1,1,0,0,1,.25.65,3.41,3.41,0,0,1-.62,1.15.75.75,0,0,0-.15.27s-.1.15-.18.31a2.15,2.15,0,0,1-.3.49c-.09.11-.11.21,0,.23s.22.11.26.16a.45.45,0,0,0,.17,0,4.47,4.47,0,0,0,1.09.35,3.33,3.33,0,0,0,.4.1c.12,0,.25,0,.36,0a12.47,12.47,0,0,0,2.66.09c.38,0,.08.32,0,.49a4.33,4.33,0,0,1-.59.65c-.27.15-.44.63-1.19.28a1.27,1.27,0,0,0-.26-.15.57.57,0,0,0-.18-.12,3.05,3.05,0,0,1-.46-.2,1.83,1.83,0,0,0-.28-.1,2,2,0,0,0-.19-.12l-.28-.07a.29.29,0,0,1-.11-.06c-.09,0-.16-.11-.2-.11s0,0-.06,0l-.19-.09a1.32,1.32,0,0,0-.66-.17.46.46,0,0,1-.22,0s-.17,0,0,.25a2.36,2.36,0,0,1,0,.29,2.4,2.4,0,0,1-.09,1c0,.1,0,.25-.06.35s-.09.23-.14.34a4.91,4.91,0,0,1-.5,1c-.2.29-.42.37-.62.24s.07-.3.27-.72a1.52,1.52,0,0,0,.06-.32,2.11,2.11,0,0,0,.08-.53c0-.14.06-.27.06-.39a3.24,3.24,0,0,0-.08-1c0-.12-.09-.15-.37.14a1.19,1.19,0,0,1-1,.21.49.49,0,0,1-.19-.28.45.45,0,0,1,0-.22s0-.15.24-.31a2.12,2.12,0,0,0,.31-.21,1.74,1.74,0,0,0,.26-.15,4.15,4.15,0,0,0,.6-.67,1.09,1.09,0,0,0-.09-.63,2.85,2.85,0,0,1-.14-.67,2.23,2.23,0,0,0-.09-.32,4.08,4.08,0,0,0-.1-.45s-.13-.34-.26-.79-.24-.67-.33-1c-.47-.86-.38-1.14-.3-1.22"/><path class="cls-3" d="M91.72,97.43a1.18,1.18,0,0,0-.19-.25h0l0-.25a.21.21,0,0,0-.16-.05c-.08,0-.06,0-.13,0s-.16.47-.2.6a1,1,0,0,1,0,.31l-.12.08c-.06,0-.12.08-.21,0s-.13-.26-.13-.26,0,0-.06.11.19.33.19.33a.42.42,0,0,1,0,.38.53.53,0,0,1-.48.18c-.13,0,0,.1,0,.17s.09.26,0,.37a.44.44,0,0,1-.54.1c-.29-.11-.68-.47-.8-.47s-.19-.16-.3-.2a2.36,2.36,0,0,0-.62-.26l-.16-.23s0-.14.1-.12.2-.15.28-.13.49,0,.63.12a3.94,3.94,0,0,0,.52.19c.09,0,.17-.08.07-.17a3.65,3.65,0,0,1-.51-.45c-.13-.08-.23-.07-.36-.26a5.93,5.93,0,0,0-.86-.46h0l-.15-.11s-.66-.19-.65-.45.42-.35.31-.29.49,0,.52,0a1.15,1.15,0,0,1,.66.14c.18,0,.15-.1.21-.15s.11-.32.64-.73c.12-.15.26-.21.29-.33.1-.36-.16-.78-.15-.9a9.74,9.74,0,0,0-.28-1,1.34,1.34,0,0,0-.27-.44c-.1-.09-.17-.26-.31-.28s-.33-.22.34-.41a1.25,1.25,0,0,1,1.14.35.88.88,0,0,1,.33.85,1.13,1.13,0,0,0,0,.26c0,.1.06.21,0,.3a1.57,1.57,0,0,0,0,.72l.06.19c0,.09.35,0,.34,0s.23-.67.38-1.1a4.66,4.66,0,0,0,.12-.48c0-.09.11-.17.09-.25l.13-.27a.84.84,0,0,1,.48-.19c.21,0,.46,0,.58.09a1.23,1.23,0,0,1,.17.25.83.83,0,0,1,.09.37s0,.07,0,.12a1,1,0,0,0,0,.35,2.41,2.41,0,0,1,0,.31s-.06,1-.06,1h0v.13h0l0,.36s0,.1.2.07.14-.07.21-.07a.51.51,0,0,1,.46.25c.16.2.19.25.17.36s0,0,0,0,0,.3-.07.42.08.36,0,.41a3.74,3.74,0,0,1-.21,1,4.55,4.55,0,0,0-.23.76c0,.14-.08.35,0,.4s0,0,.1-.09.08-.16.14-.24a.8.8,0,0,1,.24-.25c.06,0,.28-.33.52-.55l.13-.1a2.08,2.08,0,0,1,.24-.21c.12,0,.4-.06.53.12s.15.13.14.14a.56.56,0,0,0-.06.41s0,.07-.05.13a1.21,1.21,0,0,1-.09.2,3.51,3.51,0,0,0-.15.32.72.72,0,0,0-.12.24,1.09,1.09,0,0,0,0,.3s-.2.29-.33.36-.1,0,0,.06a.7.7,0,0,1,.1.13s.34.38.71.85a11.23,11.23,0,0,1,1,1.48c.07.25.3.37.23.54s0,.24-.32.37-.32.19-.32.19-.28.25-.48.23-.21.12-.52.15a9,9,0,0,0-1,.22c-.06,0-.2,0-.29.07a.09.09,0,0,1-.09,0s-.06-.13,0-.15a.75.75,0,0,1,.28-.23c.15,0,.24-.17.35-.2s.38-.27.4-.24a5.21,5.21,0,0,0,.53-.52A1,1,0,0,0,95,102a9.77,9.77,0,0,0-1.09-1.54c-.12-.11-.11-.23-.14-.22s0-.06-.21.25c-.05.08-.08.18-.15.31a4.26,4.26,0,0,0-.38,1,2.91,2.91,0,0,1-.27.6c0,.1,0,.38-.12.51s0,.37-.29.66a1.49,1.49,0,0,1-.66.4c-.28,0-.46-.19-.45-.31a4,4,0,0,1,.35-1.17.48.48,0,0,0,.09-.14,3.88,3.88,0,0,0,.3-.76c0-.1.1-.22.15-.35s.13-.35.22-.53c.27-.53.54-1,.54-1s.16-.12,0-.39a.8.8,0,0,1-.18-.54c0-.21,0-.73,0-.73a.3.3,0,0,0,0-.16c-.08-.09,0-.3,0-.3s0-.1-.13.2a1.78,1.78,0,0,1-.12.18s-.21.33-.3.46a1.9,1.9,0,0,0-.29.45,2.08,2.08,0,0,1-.19.39,6.77,6.77,0,0,0-.33.63s-.2.29-.38.15-.11,0-.14-.12a.62.62,0,0,1,0-.3,2.15,2.15,0,0,1,.12-.47c.07-.16.15-.26.14-.26h0l.55-1.28a.39.39,0,0,0,.09-.17m-3-1a3.72,3.72,0,0,0,.35.24.34.34,0,0,0,.24-.18,1.62,1.62,0,0,0,.14-.49s-.07-.16-.16-.11a1.37,1.37,0,0,0-.28.21c-.07.07-.2.11-.21.17s-.13.11-.08.16M90,96.33s.11.15.23-.07a.24.24,0,0,0,0-.22,1.55,1.55,0,0,0,0-.18s-.08-.1-.16,0a1,1,0,0,0-.1.35h0l0,.15m.92-.55a.33.33,0,0,1,0-.21.1.1,0,0,1,.15,0l.13.17s.1.15.09.2.14.2.11.25,0,.14,0,.12,0,0-.07,0a.23.23,0,0,1-.12-.06c-.06-.06-.13-.17-.16-.2s-.12-.27-.13-.27m-1.32,1.34s0,.06,0,.07a1,1,0,0,1,.17.11.49.49,0,0,0,.12.08s.14-.06.16-.13.11-.16.07-.3-.15-.1-.2-.14a.17.17,0,0,0-.19,0s-.1.15-.17.21,0,.1,0,.11m1.76-2.46s-.08.18.12.16a.57.57,0,0,1,.3.05,1,1,0,0,1,.14.29c0,.07,0,.45,0,.45A1.8,1.8,0,0,0,92,96c0,.05-.07.33,0,.39s0,.27,0,.38.07.1.15,0a1.26,1.26,0,0,0,.16-.42,4.14,4.14,0,0,1,0-.6s0-.08,0-.11,0-.26,0-.46c0,0-.07-.13-.08-.17a1,1,0,0,1-.08-.39c0-.09,0-.15-.07-.23a.76.76,0,0,1-.08-.33.91.91,0,0,0-.07-.31s-.1-.1-.19,0a3.06,3.06,0,0,0-.18.4h0l0,.14h0l0,.17h0l0,.13h0l0,.06m2.67,4.77s.13-.52.31-.61.24-.12.2,0,0,.47,0,.57-.09.32-.2.24a1.16,1.16,0,0,1-.14-.09.22.22,0,0,1-.07-.06h0l0-.06"/><path class="cls-3" d="M38.07,102.36a4.63,4.63,0,0,0,.51.3,5,5,0,0,0,.76.31s.52.12.71.16a1.28,1.28,0,0,0,.58,0c.09,0,.18,0,.25,0a1.26,1.26,0,0,1,.52,0s.41.09.41.19.28.15.21.34.2.28-.19.67c-.31.19-.52,0-.76,0s-.87.07-1.13.09c-.08,0,0,.34,0,.5s-.33.39-.3.49.65.18,1,.3a.23.23,0,0,0,.22,0,.81.81,0,0,1,.43.11.83.83,0,0,1,.42.46h0v.37a.24.24,0,0,0-.17.24h0l-1,.9c-.1,0-.18,0-.29,0-.31.2-.59.36-.91.6h0l-.19.1h0l-.47.49-.41.29a.89.89,0,0,1-.34.15h0l-.35.07a.37.37,0,0,1-.3-.13c-.07-.1-.22-.15-.26-.21a2.09,2.09,0,0,1-.12-.72c0-.07,0-.11,0-.11a.2.2,0,0,0-.15,0c-.08.06-.2.18-.3.25s-1.17-.36-1.2-.41-.24-.12-.17-.51c0-.07,0-.12,0-.18s.23,0,.38,0a2.89,2.89,0,0,0,.5,0,2.57,2.57,0,0,1,1,.2h0l.24.45a.34.34,0,0,0,.55-.14,11.35,11.35,0,0,1,2.5-1.69c.12-.07.12-.17,0-.23s-.28-.07-.37-.1-.79,0-1,.08l-.16.08c-.18.16-.56.45-.56.45h0l-.42.53a.44.44,0,0,1-.17.06c-.1,0-.11,0-.19-.19s-.14-.12-.11-.18-.08-.29,0-.35h0l.24-.39h0l-.11-.09a1.53,1.53,0,0,0-.52.24c-.09.08-.4.16-.44.22s-.21,0-.52.16a1.09,1.09,0,0,1-.64.15h-.13l.26-.36s0-.17-.55,0a5.56,5.56,0,0,0-.77.24,7.08,7.08,0,0,1-1,.5c-.09,0-.4.31-.54-.15a1.67,1.67,0,0,1-.06-.5.73.73,0,0,1,.19-.52c.31-.38.51-.72.59-.65s.09.23.18.48.44.17.54.08a5.81,5.81,0,0,1,1.79-.4.9.9,0,0,0,.43-.17h0l.27-.26h0l.47-.75s.06-.82.48-.68.64.08.66,0,0,0,0-.09l-.09-.29a2,2,0,0,1-.11-.47c0-.2-.12-.3.07-.38s.14-.08.14-.08m-.47,1.75a.32.32,0,0,1,.25,0c.15.06.21,0,.35,0a1.08,1.08,0,0,0,.26.09h.09l.34.14a.46.46,0,0,1,.2,0c.16.06.27.08,0,.4s-.43.34-.43.34h0l-.26.24s-.24-.11-.33-.05a.32.32,0,0,1-.33,0c-.13-.07-.23-.12-.18-.33a1,1,0,0,0,.07-.42,1.78,1.78,0,0,0-.05-.33c0-.09.08-.17.06-.14"/><path class="cls-3" d="M49.35,106.12a4.23,4.23,0,0,0,.76-.23c.29-.12.61-.33,1-.52.88-.47.86-.21,1-.26s.34.22.47.39.11.16.08.19a9.7,9.7,0,0,0-1,2.29c0,.13-.1.34-.1.38s-.12.14-.1.34,0,.07.11.12.16.2.09.3,0,.17-.13.29c-.19.27-.58.61-.57.72s.26.12.32.05.06-.17.15-.26a1.8,1.8,0,0,0,.17-.25s.1-.08.1-.14.32-.43.31-.35.09.07-.08.37c0,0,0,0,0,0s-.09.13-.11.18a.32.32,0,0,0,0,.16,2.12,2.12,0,0,1-.2.68,1.67,1.67,0,0,0-.26.53c0,.09-.09.18-.12.26s-.14.45-.27.55-.14.24-.18.27a6.25,6.25,0,0,0-.53.88,2.22,2.22,0,0,1-.28.33,1.68,1.68,0,0,1-.21.18s-.06.07-.08.08a1,1,0,0,1-1,0c-.21-.1-.43-.19-.4-.47a.65.65,0,0,1,.07-.35c.12-.14.18-.4.35-.64a4.08,4.08,0,0,1,.36-.43c.05-.06.11-.17.17-.26.18-.27.39-.56.39-.56s0-.28-.31-.26-1-.19-.83-.67a1.36,1.36,0,0,1,.25-.5,1,1,0,0,1,.4-.18,9.92,9.92,0,0,0,1-.28s.76-1.92.46-1.92-.82.18-1-.09c-.07-.08-.12-.06-.18-.08s-.18-.16-.21-.4a.75.75,0,0,1,.28-.47m-.26,6.4.11.11h0l.12,0h0l.12-.15h0l.23-.28h0l.08-.14h0l.2-.29h0l0-.15h0l0-.07h0l-.25,0h0l-.17.19h0l-.22.29h0l-.12.14s0,0,0,.09a1,1,0,0,1-.16.2m3.54-3.88a.67.67,0,0,1,0-.3,7.7,7.7,0,0,0,.18-.86c0-.16,0-.27,0-.3a2.22,2.22,0,0,1,0-.28c0-.19.11-.41.12-.5a1.34,1.34,0,0,0,0-.49c0-.08,0-.07,0-.07a.44.44,0,0,1,.18-.3h0l.34.17a1.39,1.39,0,0,0,.31.12.33.33,0,0,1,.23.22.21.21,0,0,0,.3.12h0l1-.83h0l.41-.29a6.12,6.12,0,0,0,.67-.49c.09-.07.24-.11.4-.21a4.8,4.8,0,0,0,.82-.4h0l.36-.21s.28-.1.42,0a2.9,2.9,0,0,1,.54.18s.41.48.36.59a.29.29,0,0,1-.12.28c-.08,0-.2.51-.52.89s-.76,1.1-.85,1.12a1.92,1.92,0,0,0-.16.23c-.18.32-.59.93-.59,1s-.65.88-.65.88a1.64,1.64,0,0,1-1,.69c-.11.22-.28.25-.31.35s0,.23-.12.28a.27.27,0,0,1-.21.22h0l-.06.36s1.44-.28,1.33.48a1.71,1.71,0,0,1-.51.78c-.28.32-.68.61-.73.83-.21.37,0,.2.16.18.43.07.91-.49,1.73.4.33.36.13.4.09.65a2.32,2.32,0,0,1-1.6.64h0l0-.08h0l.22-.15s0-.06-.12-.11a1.14,1.14,0,0,0-.51.07,1.38,1.38,0,0,1-.22,0,3.25,3.25,0,0,1-.47.1,1.21,1.21,0,0,1-.78-.23c-.14-.13-.48-.38.14-1.11.24-.13.27-.2.27-.2h0l.1-.4h0l0-.39c.12.11-.7-.32-.5-.8.27-.29.87-.57.81-.63h0l.05-.44s-.83-.2-.43-.92a2.19,2.19,0,0,1,.13-.27,2.42,2.42,0,0,0,.66-.75.34.34,0,0,0,0-.12c-.16-.15-.25-.58-.13-.71a.53.53,0,0,1,.35-.2c.12,0,.22-.08.24-.07a3.87,3.87,0,0,1,.75-1.48c.1-.16.24-.09.3-.09s.12.17.16.33a1.58,1.58,0,0,1-.08.67,1.27,1.27,0,0,1-.13.34s-.23.45-.14.5.12,0,.22-.14a6.83,6.83,0,0,0,.57-.86h0l.51-.78h0l.28-.52h0l.11-.34s.11-.26-.67.09c-.06,0-.15,0-.21.06-.68.34-1.28.65-1.36.67h0l-.11.07h0l-.31.15h0l-.5.32a.4.4,0,0,0-.08.27c0,.23,0,.62,0,.73s0,.2-.08.35a2,2,0,0,1-.23.76h0l-.54.37c-.22,0-.4.06-.57-.1a.46.46,0,0,1-.18-.1"/><path class="cls-3" d="M67.06,108.54c-.1,0-.1-.14-.25-.2s-.41-.32-.51-.34-.27-.4.09-.66a2.55,2.55,0,0,1,.49-.21,5.43,5.43,0,0,1,1.53-.4c.1,0,.29-.06.36,0,.3.1.37.09.51.2s.12.11.18.16l.16.15a1,1,0,0,1-.15.78c-.08.15-.06.33-.13.45a5,5,0,0,0-.26.54,2.06,2.06,0,0,1-.33.69,1.12,1.12,0,0,1-.32.53c-.09.06,0,.26.21.17,0,0,0,0,.07,0a6.57,6.57,0,0,1,1.49-.51,1,1,0,0,1,.31.22c.12.13.15.33-.13.63a.43.43,0,0,0-.1.16,1.86,1.86,0,0,1-.62.54c-.14.09-.34.24-.47.34a1.37,1.37,0,0,1-.4.22c-.08.09-.14.19-.23.29s-.29.2-.35.27a2.79,2.79,0,0,0-.4.44c0,.11-.45.26-.59.34a3.1,3.1,0,0,1-.33.45,1.84,1.84,0,0,0-.18.12c-.24.33-1.08.83-1.45.66,0,0-.06,0-.09,0s-.1,0-.12,0,0-.18-.17-.24-.11-.09-.18-.15a.58.58,0,0,1-.14-.59c.09-.39.26-.62.5-.6s1-.63,1.08-.69.23-.13.45-.33a1.74,1.74,0,0,0,.4-.55,2,2,0,0,0,.06-.69,3,3,0,0,1,.19-.93c0-.31.19-.66.15-.94,0,0,.06-.19-.33-.23"/><path class="cls-4" d="M29.1,90.93a3.41,3.41,0,0,0,.23,2,2.61,2.61,0,0,1,0,1,2.46,2.46,0,0,0-.06.6c-.06.15-.92.49-1,.28a6,6,0,0,0-.37-.76s.14-.23-.94-.54-.28-.34-.1-.29a.78.78,0,0,0,1-.27c.33-.52.19-.45.49-.76a7.49,7.49,0,0,0,.76-1.27m-8.39,5.74a4.23,4.23,0,0,0,.5-.06c.09,0,.19,0,.31,0a.56.56,0,0,1,.18,0,5.55,5.55,0,0,1,.92-.15s.41-.23.87.31a.75.75,0,0,0,1.22-.23c.18-.23.1-.52,0-.87-.23-.4-.12-.62-.36-.76s0-.21-.14-.35-.26-.4-.57,0-.16.22-.26.33-.11.35-.21.4a1.07,1.07,0,0,1-.61.6c-.37.11-1.11.57-1.24.48s0,.13-.13,0-.22.1-.22.1h0l-.3.18M18.2,98.41c-.27-.19-.12-.44.11-.63s.48-.09.47,0c.78.38,1.44.51,3.89.17a8,8,0,0,0,3.85-1.53s.21,0,.45.15.85.38,1.51.67a2,2,0,0,0,.3.14,21.06,21.06,0,0,1,3,1.23.71.71,0,0,1-.05,1.08,4.83,4.83,0,0,1-.72.13c-.35.09-.73.24-1.09.32s-.77.07-.83.11a12.88,12.88,0,0,1-1.33.3,3.64,3.64,0,0,1-.58,0c-.31,0-.63.08-.7.08a.54.54,0,0,1-.49.08c-.07.08-.91-.52-.71-.7s.24-.5.75-.53,3.15-.63,3.15-.63.47-.11-.11-.24l-1.71-.4s-.77-.4-.9-.71-.1-.52-.54-.35-3.26,1.62-3.59,1.75a13.48,13.48,0,0,1-1.91.79,3.58,3.58,0,0,0-1,0c-.09,0-.23-.06-.31-.08-1-.25-.88-.68-.95-1.2M23,99.86l.29-.09s.15,0,.14.11,1.53.67,1.53.67h.06l.23.13s.55.12.6.2,1.08.4,1.18.45.22,0,.29.08l.26.12a2.34,2.34,0,0,1,.3.11.51.51,0,0,0,.18.08.28.28,0,0,0,.17,0,2.81,2.81,0,0,1,.75.37,1.67,1.67,0,0,1,.36.61s0,.39-.66.57c-.12,0-.21.18-.31.13s-.19-.12-.3-.17l-.83-.43h0l-1.89-.8h0l-.8-.28h-.22l-.29-.17h0l-.33,0h0l-.4-.16h0l-.26-.08s-.43-.37-.37-.52a.92.92,0,0,0,0-.43h0l.33-.43"/><path class="cls-4" d="M77.93,101.1c.21-.18.19-.17.33-.22a1.59,1.59,0,0,1,.42.09h0l.1.06a3,3,0,0,1,.29.18,6.28,6.28,0,0,1,.22.61c0,.05,0,.08,0,.09a4.15,4.15,0,0,0,.16.42,2.55,2.55,0,0,0,.17.6c0,.07,0,.13,0,.2s.14.54.19.85a1.59,1.59,0,0,0,.08.27.18.18,0,0,1,0,.1.15.15,0,0,0,0,.1s.09.35.22.09a2.23,2.23,0,0,0,.18-.43h0l.11-.31h0v-.16s-.06-.33-.21-.41A3.39,3.39,0,0,1,80,103c-.1-.09-.19-.14-.18-.12s0-.07.08,0,.18,0,.26.09.24,0,.38.06a.86.86,0,0,0,.43.09h0l.1,0h0l.29,0a1,1,0,0,1,.25.65,3.41,3.41,0,0,1-.62,1.15.75.75,0,0,0-.15.27s-.1.15-.18.31a2.15,2.15,0,0,1-.3.49c-.09.11-.11.21,0,.23s.22.11.26.16a.45.45,0,0,0,.17,0,4.47,4.47,0,0,0,1.09.35,3.33,3.33,0,0,0,.4.1c.12,0,.25,0,.36,0a12.47,12.47,0,0,0,2.66.09c.38,0,.08.32,0,.49a4.33,4.33,0,0,1-.59.65c-.27.15-.44.63-1.19.28a1.27,1.27,0,0,0-.26-.15.57.57,0,0,0-.18-.12,3.05,3.05,0,0,1-.46-.2,1.83,1.83,0,0,0-.28-.1,2,2,0,0,0-.19-.12l-.28-.07a.29.29,0,0,1-.11-.06c-.09,0-.16-.11-.2-.11s0,0-.06,0l-.19-.09a1.32,1.32,0,0,0-.66-.17.46.46,0,0,1-.22,0s-.17,0,0,.25a2.36,2.36,0,0,1,0,.29,2.4,2.4,0,0,1-.09,1c0,.1,0,.25-.06.35s-.09.23-.14.34a4.91,4.91,0,0,1-.5,1c-.2.29-.42.37-.62.24s.07-.3.27-.72a1.52,1.52,0,0,0,.06-.32,2.11,2.11,0,0,0,.08-.53c0-.14.06-.27.06-.39a3.24,3.24,0,0,0-.08-1c0-.12-.09-.15-.37.14a1.19,1.19,0,0,1-1,.21.49.49,0,0,1-.19-.28.45.45,0,0,1,0-.22s0-.15.24-.31a2.12,2.12,0,0,0,.31-.21,1.74,1.74,0,0,0,.26-.15,4.15,4.15,0,0,0,.6-.67,1.09,1.09,0,0,0-.09-.63,2.85,2.85,0,0,1-.14-.67,2.23,2.23,0,0,0-.09-.32,4.08,4.08,0,0,0-.1-.45s-.13-.34-.26-.79-.24-.67-.33-1c-.47-.86-.38-1.14-.3-1.22"/><path class="cls-4" d="M91.72,97.43a1.18,1.18,0,0,0-.19-.25h0l0-.25a.21.21,0,0,0-.16-.05c-.08,0-.06,0-.13,0s-.16.47-.2.6a1,1,0,0,1,0,.31l-.12.08c-.06,0-.12.08-.2,0s-.14-.26-.14-.26,0,0-.06.11.2.33.2.33a.43.43,0,0,1,0,.38.53.53,0,0,1-.48.18c-.13,0,0,.1,0,.17s.08.26-.05.37a.44.44,0,0,1-.54.1c-.29-.11-.68-.47-.8-.47s-.19-.16-.3-.2a2.36,2.36,0,0,0-.62-.26l-.16-.23s0-.14.1-.12.21-.15.28-.13.49,0,.63.12a3.94,3.94,0,0,0,.52.19c.09,0,.17-.08.07-.17a3.65,3.65,0,0,1-.51-.45c-.13-.08-.23-.07-.36-.26a5.93,5.93,0,0,0-.86-.46h0l-.15-.11s-.66-.19-.65-.45.42-.35.31-.29.49,0,.52,0a1.15,1.15,0,0,1,.66.14c.18,0,.15-.1.21-.15s.11-.32.64-.73c.12-.15.26-.21.29-.33.1-.36-.16-.78-.15-.9a9.74,9.74,0,0,0-.28-1,1.34,1.34,0,0,0-.27-.44c-.1-.09-.17-.26-.31-.28s-.33-.22.34-.41a1.25,1.25,0,0,1,1.14.35.88.88,0,0,1,.33.85,1.13,1.13,0,0,0,0,.26c0,.1.06.21,0,.3a1.57,1.57,0,0,0,0,.72l.06.19c0,.09.35,0,.34,0s.24-.67.38-1.1a4.66,4.66,0,0,0,.12-.48c0-.09.11-.17.09-.25l.13-.27a.84.84,0,0,1,.48-.19c.21,0,.46,0,.58.09a1.23,1.23,0,0,1,.17.25.83.83,0,0,1,.09.37s0,.07,0,.12a1,1,0,0,0,0,.35,2.41,2.41,0,0,1,0,.31s-.06,1-.06,1h0v.13h0l0,.36s0,.1.21.07.13-.07.2-.07a.51.51,0,0,1,.46.25c.16.2.19.25.17.36s0,0,0,0,0,.3-.07.42.08.36.06.41a4.41,4.41,0,0,1-.22,1,4.55,4.55,0,0,0-.23.76c0,.14-.08.35,0,.4s0,0,.1-.09.08-.16.14-.24a.8.8,0,0,1,.24-.25c.06,0,.28-.33.52-.55l.13-.1a2.08,2.08,0,0,1,.24-.21c.12,0,.4-.06.53.12s.15.13.14.14a.56.56,0,0,0-.06.41s0,.07-.05.13a1.21,1.21,0,0,1-.09.2,3.51,3.51,0,0,0-.15.32.72.72,0,0,0-.12.24,1.69,1.69,0,0,0,0,.3s-.2.29-.33.36-.1,0,0,.06a.7.7,0,0,1,.1.13s.34.38.71.85a11.23,11.23,0,0,1,1,1.48c.07.25.3.37.23.54s0,.24-.32.37-.32.19-.32.19-.28.25-.48.23-.2.12-.52.15a9.47,9.47,0,0,0-1,.22c-.06,0-.2,0-.29.07a.09.09,0,0,1-.09,0s-.06-.13,0-.15a.75.75,0,0,1,.28-.23c.15,0,.24-.17.35-.2s.38-.27.4-.24a5.21,5.21,0,0,0,.53-.52A1,1,0,0,0,95,102a9.77,9.77,0,0,0-1.09-1.54c-.12-.11-.11-.23-.14-.22s0-.06-.21.25c-.05.08-.08.18-.15.31a4.81,4.81,0,0,0-.38,1,2.91,2.91,0,0,1-.27.6c0,.1,0,.38-.12.51s0,.37-.29.66a1.49,1.49,0,0,1-.66.4c-.28,0-.46-.19-.45-.31a4,4,0,0,1,.35-1.17.48.48,0,0,0,.09-.14c.08-.27.19-.24.3-.76,0-.1.1-.22.15-.35s.13-.35.22-.53c.27-.53.54-1,.54-1s.16-.12,0-.39a.8.8,0,0,1-.18-.54c0-.21,0-.73,0-.73a.3.3,0,0,0,0-.16c-.08-.09,0-.3,0-.3s0-.1-.13.2a1.78,1.78,0,0,1-.12.18s-.21.33-.3.46a1.9,1.9,0,0,0-.29.45,2.08,2.08,0,0,1-.19.39,6.77,6.77,0,0,0-.33.63s-.2.29-.38.15-.11,0-.14-.12a.62.62,0,0,1,0-.3,2.15,2.15,0,0,1,.12-.47c.07-.16.15-.26.14-.26h0l.55-1.28a.39.39,0,0,0,.09-.17m-3-1a3.72,3.72,0,0,0,.35.24.34.34,0,0,0,.24-.18,1.62,1.62,0,0,0,.14-.49s-.07-.16-.16-.11a1.37,1.37,0,0,0-.28.21c-.07.07-.2.11-.21.17s-.13.11-.08.16M90,96.33s.11.15.23-.07a.24.24,0,0,0,0-.22,1.55,1.55,0,0,0,0-.18.11.11,0,0,0-.16,0,1,1,0,0,0-.1.35h0l0,.15m.92-.55a.41.41,0,0,1,0-.21.1.1,0,0,1,.15,0l.13.17s.1.15.09.2.14.2.11.25,0,.14,0,.12,0,0-.07,0a.23.23,0,0,1-.12-.06c-.06-.06-.13-.17-.16-.2s-.12-.27-.13-.27m-1.32,1.34s0,.06,0,.07a1,1,0,0,1,.17.11.49.49,0,0,0,.12.08s.14-.06.16-.13.11-.16.07-.3-.15-.1-.2-.14a.17.17,0,0,0-.19,0s-.1.15-.17.21,0,.1,0,.11m1.76-2.46s-.08.18.12.16a.57.57,0,0,1,.3.05,1,1,0,0,1,.14.29c0,.07,0,.45,0,.45A1.8,1.8,0,0,0,92,96c0,.05-.06.33,0,.39s0,.27,0,.38.07.1.15,0a1.26,1.26,0,0,0,.16-.42,4.14,4.14,0,0,1,0-.6s0-.08,0-.11,0-.26,0-.46c0,0-.07-.13-.08-.17a1,1,0,0,1-.08-.39c0-.09,0-.15-.07-.23a.76.76,0,0,1-.08-.33.91.91,0,0,0-.07-.31s-.1-.1-.19,0a3.06,3.06,0,0,0-.18.4h0l0,.14h0v.17h0l0,.13h0l0,.06m2.67,4.77s.13-.52.31-.61.24-.12.2,0,0,.47,0,.57-.09.32-.2.24a1.16,1.16,0,0,1-.14-.09.22.22,0,0,1-.07-.06h0l0-.06"/><path class="cls-4" d="M38.07,102.36a4.63,4.63,0,0,0,.51.3,5,5,0,0,0,.76.31s.52.12.71.16a1.28,1.28,0,0,0,.58,0c.09,0,.18,0,.25,0a1.26,1.26,0,0,1,.52,0s.41.09.41.19.28.15.21.34.2.28-.19.67c-.31.19-.52,0-.76,0s-.87.07-1.13.09c-.08,0,0,.34,0,.5s-.33.39-.3.49.65.18,1,.3a.23.23,0,0,0,.22,0,.81.81,0,0,1,.43.11.83.83,0,0,1,.42.46h0v.37a.24.24,0,0,0-.17.24h0l-1,.9c-.1,0-.18,0-.29,0-.31.2-.59.36-.91.6h0l-.19.1h0l-.47.49-.41.29a.89.89,0,0,1-.34.15h0l-.35.07a.37.37,0,0,1-.3-.13c-.07-.1-.22-.15-.26-.21a2.09,2.09,0,0,1-.12-.72c0-.07,0-.11,0-.11a.2.2,0,0,0-.15,0c-.08.06-.2.18-.3.25s-1.17-.36-1.2-.41-.24-.12-.17-.51c0-.07,0-.12,0-.18s.23,0,.38,0a2.89,2.89,0,0,0,.5,0,2.57,2.57,0,0,1,1,.2h0l.24.45a.34.34,0,0,0,.55-.14,11.35,11.35,0,0,1,2.5-1.69c.12-.07.12-.17,0-.23s-.28-.07-.37-.1-.79,0-1,.08l-.16.08c-.18.16-.56.45-.56.45h0l-.42.53a.44.44,0,0,1-.17.06c-.1,0-.11,0-.19-.19s-.14-.12-.11-.18-.08-.29,0-.35h0l.24-.39h0l-.11-.09a1.53,1.53,0,0,0-.52.24c-.09.08-.4.16-.44.22s-.21,0-.52.16a1.09,1.09,0,0,1-.64.15h-.13l.26-.36s0-.17-.55,0a5.56,5.56,0,0,0-.77.24,7.08,7.08,0,0,1-1,.5c-.09,0-.4.31-.54-.15a1.67,1.67,0,0,1-.06-.5.73.73,0,0,1,.19-.52c.31-.38.51-.72.59-.65s.09.23.18.48.44.17.54.08a5.81,5.81,0,0,1,1.79-.4.9.9,0,0,0,.43-.17h0l.27-.26h0l.47-.75s.06-.82.48-.68.64.08.66,0,0,0,0-.09l-.09-.29a2,2,0,0,1-.11-.47c0-.2-.12-.3.07-.38s.14-.08.14-.08m-.47,1.75a.32.32,0,0,1,.25,0c.15.06.21,0,.35,0a1.08,1.08,0,0,0,.26.09h.09l.34.14a.46.46,0,0,1,.2,0c.16.06.27.08,0,.4s-.43.34-.43.34h0l-.26.24s-.24-.11-.33-.05a.32.32,0,0,1-.33,0c-.13-.07-.23-.12-.18-.33a1,1,0,0,0,.07-.42,1.78,1.78,0,0,0-.05-.33c0-.09.08-.17.06-.14"/><path class="cls-4" d="M49.35,106.12a4.23,4.23,0,0,0,.76-.23c.29-.12.61-.33,1-.52.88-.47.86-.21,1-.26s.34.22.47.39.11.16.08.19a9.7,9.7,0,0,0-1,2.29c0,.13-.1.34-.1.38s-.12.14-.1.34,0,.07.11.12.16.2.09.3,0,.17-.13.29c-.19.27-.58.61-.57.72s.26.12.32.05.06-.17.15-.26a1.8,1.8,0,0,0,.17-.25s.1-.08.1-.14.32-.43.31-.35.09.07-.08.37c0,0,0,0,0,0s-.09.13-.11.18a.32.32,0,0,0,0,.16,2.12,2.12,0,0,1-.2.68,1.67,1.67,0,0,0-.26.53c0,.09-.09.18-.12.26s-.14.45-.27.55-.14.24-.18.27a6.25,6.25,0,0,0-.53.88,2.22,2.22,0,0,1-.28.33,1.68,1.68,0,0,1-.21.18s-.06.07-.08.08a1,1,0,0,1-1,0c-.21-.1-.43-.19-.4-.47a.65.65,0,0,1,.07-.35c.12-.14.18-.4.35-.64a4.08,4.08,0,0,1,.36-.43c.05-.06.11-.17.17-.26.18-.27.39-.56.39-.56s0-.28-.31-.26-1-.19-.83-.67a1.36,1.36,0,0,1,.25-.5,1,1,0,0,1,.4-.18,9.92,9.92,0,0,0,1-.28s.76-1.92.46-1.92-.82.18-1-.09c-.07-.08-.12-.06-.18-.08s-.18-.16-.21-.4a.75.75,0,0,1,.28-.47m-.26,6.4.11.11h0l.12,0h0l.12-.15h0l.23-.28h0l.08-.14h0l.2-.29h0l0-.15h0l0-.07h0l-.25,0h0l-.17.19h0l-.22.29h0l-.12.14s0,0,0,.09a1,1,0,0,1-.16.2m3.54-3.88a.67.67,0,0,1,0-.3,7.7,7.7,0,0,0,.18-.86c0-.16,0-.27,0-.3a2.22,2.22,0,0,1,0-.28c0-.19.11-.41.12-.5a1.34,1.34,0,0,0,0-.49c0-.08,0-.07,0-.07a.44.44,0,0,1,.18-.3h0l.34.17a1.39,1.39,0,0,0,.31.12.33.33,0,0,1,.23.22.21.21,0,0,0,.3.12h0l1-.83h0l.41-.29a6.12,6.12,0,0,0,.67-.49c.09-.07.24-.11.4-.21a4.8,4.8,0,0,0,.82-.4h0l.36-.21s.28-.1.42,0a2.9,2.9,0,0,1,.54.18s.41.48.36.59a.29.29,0,0,1-.12.28c-.08,0-.2.51-.52.89s-.76,1.1-.85,1.12a1.92,1.92,0,0,0-.16.23c-.18.32-.59.93-.59,1s-.65.88-.65.88a1.64,1.64,0,0,1-1,.69c-.11.22-.28.25-.31.35s0,.23-.12.28a.27.27,0,0,1-.21.22h0l-.06.36s1.44-.28,1.33.48a1.71,1.71,0,0,1-.51.78c-.28.32-.68.61-.73.83-.21.37,0,.2.16.18.43.07.91-.49,1.73.4.33.36.13.4.09.65a2.32,2.32,0,0,1-1.6.64h0l0-.08h0l.22-.15s0-.06-.12-.11a1.14,1.14,0,0,0-.51.07,1.38,1.38,0,0,1-.22,0,3.25,3.25,0,0,1-.47.1,1.21,1.21,0,0,1-.78-.23c-.14-.13-.48-.38.14-1.11.24-.13.27-.2.27-.2h0l.1-.4h0l0-.39c.12.11-.7-.32-.5-.8.27-.29.87-.57.81-.63h0l.05-.44s-.83-.2-.43-.92a2.19,2.19,0,0,1,.13-.27,2.42,2.42,0,0,0,.66-.75.34.34,0,0,0,0-.12c-.16-.15-.25-.58-.13-.71a.53.53,0,0,1,.35-.2c.12,0,.22-.08.24-.07a3.87,3.87,0,0,1,.75-1.48c.1-.16.24-.09.3-.09s.12.17.16.33a1.58,1.58,0,0,1-.08.67,1.27,1.27,0,0,1-.13.34s-.23.45-.14.5.12,0,.22-.14a6.83,6.83,0,0,0,.57-.86h0l.51-.78h0l.28-.52h0l.11-.34s.11-.26-.67.09c-.06,0-.15,0-.21.06-.68.34-1.28.65-1.36.67h0l-.11.07h0l-.31.15h0l-.5.32a.4.4,0,0,0-.08.27c0,.23,0,.62,0,.73s0,.2-.08.35a2,2,0,0,1-.23.76h0l-.54.37c-.22,0-.4.06-.57-.1a.46.46,0,0,1-.18-.1"/><path class="cls-4" d="M67.06,108.54c-.1,0-.1-.14-.25-.2s-.41-.32-.51-.34-.27-.4.09-.66a2.55,2.55,0,0,1,.49-.21,5.43,5.43,0,0,1,1.53-.4c.1,0,.29-.06.36,0,.3.1.37.09.51.2s.12.11.18.16l.16.15a1,1,0,0,1-.15.78c-.08.15-.06.33-.13.45a5,5,0,0,0-.26.54,2.06,2.06,0,0,1-.33.69,1.12,1.12,0,0,1-.32.53c-.09.06,0,.26.21.17,0,0,0,0,.07,0a6.57,6.57,0,0,1,1.49-.51,1,1,0,0,1,.31.22c.12.13.15.33-.13.63a.43.43,0,0,0-.1.16,1.86,1.86,0,0,1-.62.54c-.14.09-.34.24-.47.34a1.37,1.37,0,0,1-.4.22c-.08.09-.14.19-.23.29s-.29.2-.35.27a2.79,2.79,0,0,0-.4.44c0,.11-.45.26-.59.34a3.1,3.1,0,0,1-.33.45,1.84,1.84,0,0,0-.18.12c-.24.33-1.08.83-1.45.66,0,0-.06,0-.09,0s-.1,0-.12,0,0-.18-.17-.24-.11-.09-.18-.15a.58.58,0,0,1-.14-.59c.09-.39.26-.62.5-.6s1-.63,1.08-.69.23-.13.45-.33a1.74,1.74,0,0,0,.4-.55,2,2,0,0,0,.06-.69,3,3,0,0,1,.19-.93c0-.31.19-.66.15-.94,0,0,.06-.19-.33-.23"/><path class="cls-5" d="M16.51,85.12a2.17,2.17,0,0,1,1.54-.42,1.83,1.83,0,0,1,1.31,2,2,2,0,0,1-1,1.19h0l-.31.2h0l-.42-.66h0l.41-.25a1.28,1.28,0,0,0,.6-.68.84.84,0,0,0-.1-.64.9.9,0,0,0-.61-.46,1.52,1.52,0,0,0-1,.32h0l-3.32,2.07h0l-.42-.66h0l3.29-2.06m-.19-4.31.36.69h0L11.5,84.14h0l-.36-.69h0l5.18-2.64m-2.6-6,.3.75h0l-1.5,1.09h0l.58,1.44h0l1.84-.26h0l.31.76h0l-6.09.63h0l-.26-.63h0l4.82-3.78M12,77.07l-1.71,1.3h0l0,0h0l2.13-.25h0L12,77.07m.48-6.83.23.82h0L9.17,74h0v0h0l4.05-1.16h0l.21.75h0L7.85,75.25h0l-.23-.82h0l3.53-3h0v0h0L7.09,72.6h0l-.21-.75h0l5.59-1.61m-.78-4.91.09.57h0l-.46.17a1,1,0,0,1,.41.37A1.56,1.56,0,0,1,12,67a1.64,1.64,0,0,1-.46,1.36,3.2,3.2,0,0,1-2,.89,4.43,4.43,0,0,1-2.43-.13,1.6,1.6,0,0,1-1-1.26,1.49,1.49,0,0,1,.38-1.3,2.43,2.43,0,0,1,1.41-.67h0l.12.74a1.94,1.94,0,0,0-1,.41.75.75,0,0,0-.25.72.87.87,0,0,0,.68.72,4.7,4.7,0,0,0,1.91,0,3.19,3.19,0,0,0,1.66-.6,1,1,0,0,0,.35-.85.87.87,0,0,0-.43-.64,1.66,1.66,0,0,0-1-.09h0l-.37.06h0l.16,1h0l-.64.1H9L8.73,65.8h0l3-.47m-.53-5.12.05.81h0L8.92,62.36h0l2.45,1h0l.06.81h0L8.29,62.78h0l-2.67,1.6h0l-.06-.81h0l2.05-1.15h0L5.42,61.6h0l0-.82h0L8.2,62h0l3-1.81m.15-3.42,0,.78h0l-5.81-.1h0v-.78h0l5.82.1m-.12-10.06a1.83,1.83,0,0,1,1.16.71,2.14,2.14,0,0,1-.6,2.61,1.87,1.87,0,0,1-1.36.13h0l-4-.93h0l.18-.76h0l4,.92a1.13,1.13,0,0,0,.89-.07,1,1,0,0,0,.43-.63,1,1,0,0,0-.11-.76,1.17,1.17,0,0,0-.77-.46h0l-4-.92H7l.18-.77h0l4,.93m3.15-4.34-.29.8h0l-4.6.32h0v0h0l4,1.44h0l-.27.73h0l-5.46-2h0l.29-.8H8l4.6-.32h0v0h0l-4-1.44h0l.27-.74h0l5.46,2M15.82,39l-.33.71h0l-5.27-2.46h0l.33-.7h0L15.82,39m-2.05-8.61,4.32,4.34h0l-.32.59h0L11.8,34h0l.39-.71h0l4.49,1.09h0l-3.3-3.23h0l.39-.71m8-1.06-2,2.84h0L15,28.88h0l1.9-2.71h0l.53.37h0L16,28.61h0l1.48,1h0l1.33-1.89h0l.53.37h0L18,30h0l1.7,1.19h0L21.2,29h0l.53.37m3.45-3.72-.56.59h0L22,25.35h0l-.63.65h0l1.81,1.75h0l-.54.57h0l-4.18-4h0l1.18-1.23a2.17,2.17,0,0,1,1.2-.68,1.51,1.51,0,0,1,1.27.52,1.49,1.49,0,0,1,.52,1,1.42,1.42,0,0,1-.2.89h0l2.78.89m-3.64-2.2a1,1,0,0,0-.74-.31,1.36,1.36,0,0,0-.85.49h0l-.51.53h0l1.44,1.4h0l.66-.69a1.2,1.2,0,0,0,.34-.67.9.9,0,0,0-.34-.75m6.12-2.35a1.63,1.63,0,0,1,.44,1.27,1.93,1.93,0,0,1-.71,1.22,1.82,1.82,0,0,1-1.32.51,1.59,1.59,0,0,1-1.14-.58h0l-.15-.18h0l.59-.52h0l.13.16a1,1,0,0,0,.74.39,1.08,1.08,0,0,0,.72-.26,1,1,0,0,0,.42-.75,1,1,0,0,0-.27-.69.85.85,0,0,0-.64-.27,2.61,2.61,0,0,0-1,.18,3,3,0,0,1-1.33.25,1.23,1.23,0,0,1-.85-.43,1.46,1.46,0,0,1-.38-1.19,1.7,1.7,0,0,1,.59-1.11,1.52,1.52,0,0,1,1.31-.44,1.86,1.86,0,0,1,1,.61h0l-.59.51a.92.92,0,0,0-.6-.38.81.81,0,0,0-.71.21.89.89,0,0,0-.34.6.72.72,0,0,0,.21.6.79.79,0,0,0,.48.28,3.12,3.12,0,0,0,1.08-.24,3.3,3.3,0,0,1,1.35-.21,1.41,1.41,0,0,1,.95.46m3.88-.88-.64.46h0L27.49,16h0l.63-.46h0l3.42,4.71m2.86-7.89L33.21,13h0l2.51,4.52h0l-.69.38h0l-2.5-4.52h0L31.34,14h0L31,13.47h0l3.07-1.7h0l.31.56m4.87-3-.16,3.57h0l1.06,2.39h0l-.71.32h0L38.39,13.2h0l-2.76-2.27h0l.72-.32h0l2.09,1.78h0l0,0h0l.08-2.75h0l.72-.31M49,9.4a4.14,4.14,0,0,1,0,2.35,1.59,1.59,0,0,1-1.19,1,1.62,1.62,0,0,1-1.51-.37,3.91,3.91,0,0,1-1-2.12,3.94,3.94,0,0,1,0-2.33,1.66,1.66,0,0,1,1.21-1A1.6,1.6,0,0,1,48,7.3a4,4,0,0,1,1,2.1m-.79.19a3.91,3.91,0,0,0-.72-1.76.91.91,0,0,0-.83-.26.92.92,0,0,0-.64.61,3.49,3.49,0,0,0,.1,1.89,3.71,3.71,0,0,0,.74,1.77.91.91,0,0,0,.85.27.86.86,0,0,0,.62-.61,3.87,3.87,0,0,0-.12-1.91m5.66-3.18-2.77.34h0l.23,1.89h0l2.09-.25h0l.08.64h0l-2.09.25h0l.32,2.6h0l-.78.1h0l-.71-5.77h0l3.55-.44h0l.08.64M62.93,9.7a1.6,1.6,0,0,1-.5,1.24,1.85,1.85,0,0,1-1.34.46,1.83,1.83,0,0,1-1.33-.47,1.66,1.66,0,0,1-.47-1.2h0V9.5h.78v.2a1,1,0,0,0,.31.78,1,1,0,0,0,.71.28.94.94,0,0,0,1-1,.86.86,0,0,0-.3-.63A3.1,3.1,0,0,0,61,8.61a3.1,3.1,0,0,1-1.18-.68,1.22,1.22,0,0,1-.36-.88,1.49,1.49,0,0,1,.5-1.16,1.72,1.72,0,0,1,1.17-.44A1.46,1.46,0,0,1,62.36,6a1.82,1.82,0,0,1,.4,1.14H62a.89.89,0,0,0-.2-.68.79.79,0,0,0-.68-.31,1,1,0,0,0-.65.22.81.81,0,0,0-.23.6.78.78,0,0,0,.18.52,2.7,2.7,0,0,0,1,.53,3.45,3.45,0,0,1,1.16.73,1.39,1.39,0,0,1,.41,1m5.32,0a2.81,2.81,0,0,1-.76,1.76,1.6,1.6,0,0,1-1.28.39A1.8,1.8,0,0,1,64.9,11a3.25,3.25,0,0,1-.31-2.18,4,4,0,0,1,.85-2.29A1.66,1.66,0,0,1,67,6a1.58,1.58,0,0,1,1.16.7,2.2,2.2,0,0,1,.26,1.63h0l-.74-.09a2.12,2.12,0,0,0-.1-1.15.78.78,0,0,0-.66-.45,1,1,0,0,0-.93.45,4,4,0,0,0-.55,1.83,3.38,3.38,0,0,0,.11,1.75,1,1,0,0,0,.77.59A.88.88,0,0,0,67,11a2.25,2.25,0,0,0,.48-1.34h0l.77.1m3,3-.77-.17h0l1.21-5.68h0l.77.16h0L71.3,12.74m6.06,2L74.08,13.6h0L76,8.1h0L79.1,9.17h0l-.21.61h0L76.51,9h0l-.59,1.71h0l2.19.75h0L77.9,12h0l-2.19-.75h0l-.68,2h0l2.54.88h0l-.21.61m4.44,2.14L81,16.48h0l.25-4.6h0l0,0h0l-1.92,3.76h0l-.69-.36h0l2.64-5.18h0l.76.39h0l-.25,4.6h0l1.91-3.75h0l.7.36h0L81.8,16.87m5.64.69A2.75,2.75,0,0,1,86,18.8a1.61,1.61,0,0,1-1.32-.21,1.83,1.83,0,0,1-.81-1.32,3.22,3.22,0,0,1,.68-2.09,4.06,4.06,0,0,1,1.76-1.69,1.7,1.7,0,0,1,1.64.13,1.57,1.57,0,0,1,.74,1.15,2.2,2.2,0,0,1-.48,1.57h0l-.63-.41A2.09,2.09,0,0,0,88,14.86a.79.79,0,0,0-.4-.7,1,1,0,0,0-1,0,3.84,3.84,0,0,0-1.3,1.41,3.28,3.28,0,0,0-.67,1.61,1,1,0,0,0,.43.87.92.92,0,0,0,.77.07,2.28,2.28,0,0,0,1-1h0l.65.43m2.64,4.87-2.73-2.14h0l3.58-4.58h0l2.6,2h0l-.4.51h0l-2-1.55h0L90,18.12h0l1.83,1.43h0l-.4.51h0l-1.82-1.43h0l-1.28,1.64h0l2.12,1.65h0l-.4.51m6.24,6.08-.56-.59h0l1-1.57h0l-1.08-1.12h0l-1.6.93h0l-.57-.59h0l5.41-2.86h0l.47.49h0l-3.05,5.31m.76-2.75,1.1-1.84h0l0,0h0l-1.88,1h0l.82.84m2,6.51-.51-.68h0l2.24-4h0l0,0h0L97.4,30.07h0l-.47-.63h0l4.65-3.5h0l.51.68h0l-2.24,4h0l0,0h0l3.36-2.54h0l.47.63h0l-4.64,3.5m5.12,2.83a3.09,3.09,0,0,1-2.26.54,2.42,2.42,0,0,1-1.47-1.21h0l-.57-1h0l5-2.91h0l.58,1a2.36,2.36,0,0,1,.34,1.95,3.43,3.43,0,0,1-1.65,1.63m-.41-.7a2.93,2.93,0,0,0,1.33-1.24,1.48,1.48,0,0,0-.17-1.32h0l-.19-.32h0l-3.91,2.26h0l.18.33a1.49,1.49,0,0,0,1,.81,2.8,2.8,0,0,0,1.72-.52M110,42.16l-.53-1.26h0l-4.76,2h0l-.3-.72h0l4.76-2h0l-.53-1.25h0l.59-.25h0l1.37,3.22h0l-.6.26m-3.46,6.93-1-3.31h0l5.56-1.7h0l1,3.15h0l-.62.19h0L110.65,45h0l-1.72.53h0l.67,2.21h0l-.61.19h0l-.68-2.21h0l-2,.61h0l.78,2.57h0l-.61.18m3,4.72a2.73,2.73,0,0,1-1.89-.28,1.6,1.6,0,0,1-.71-1.14,1.83,1.83,0,0,1,.46-1.47,3.26,3.26,0,0,1,2-.87,4.13,4.13,0,0,1,2.43.23,1.71,1.71,0,0,1,1,1.32,1.6,1.6,0,0,1-.38,1.31,2.2,2.2,0,0,1-1.51.67h0l-.1-.74a2.19,2.19,0,0,0,1.08-.39.8.8,0,0,0,.27-.76,1,1,0,0,0-.68-.78,4,4,0,0,0-1.91-.06,3.4,3.4,0,0,0-1.66.56,1,1,0,0,0-.37.9.93.93,0,0,0,.45.62,2.17,2.17,0,0,0,1.41.11h0l.1.77m-2,5.09,0-.78h0l2.72,0h0l0-1.94h0l-2.72,0h0l0-.78h0l5.82-.11h0v.79h0l-2.45,0h0l0,1.94h0l2.45-.05h0v.79h0l-5.81.1m-.18,5,.06-.85h0l4.34-1.57h0v0h0l-4.2-.3h0l0-.77h0l5.8.4h0l-.06.85h0L109,63.16h0v0h0l4.2.3h0l-.06.78h0l-5.8-.41m2.09,5.53a4.1,4.1,0,0,1-2.19-.85,1.55,1.55,0,0,1-.47-1.47,1.61,1.61,0,0,1,.9-1.26,5.36,5.36,0,0,1,4.52.71,1.62,1.62,0,0,1,.45,1.49,1.58,1.58,0,0,1-.88,1.25,4,4,0,0,1-2.33.13m.13-.81a3.64,3.64,0,0,0,1.89,0,.87.87,0,0,0,.56-.67.94.94,0,0,0-.32-.82,3.59,3.59,0,0,0-1.8-.61,3.69,3.69,0,0,0-1.91,0,.94.94,0,0,0-.58.69.91.91,0,0,0,.34.81,3.88,3.88,0,0,0,1.82.59m-4.19,5.07,1-3.4h0l5.59,1.6h0l-.22.75h0l-5-1.42h0L106,73.83h0l-.62-.18m1,5.8a4.1,4.1,0,0,1-2-1.28,1.62,1.62,0,0,1-.16-1.54,1.65,1.65,0,0,1,1.16-1,5.39,5.39,0,0,1,4.26,1.64,1.75,1.75,0,0,1-1,2.59,4,4,0,0,1-2.3-.36m.29-.76a3.68,3.68,0,0,0,1.86.38.89.89,0,0,0,.68-.54.94.94,0,0,0-.14-.87,3.52,3.52,0,0,0-1.63-1,3.72,3.72,0,0,0-1.88-.38,1,1,0,0,0-.7.55.89.89,0,0,0,.16.87,3.79,3.79,0,0,0,1.65,1m-5.25,4,.27-.51h0l.47.12a1,1,0,0,1-.11-.53,1.39,1.39,0,0,1,.16-.62,1.64,1.64,0,0,1,1.17-.84,3.26,3.26,0,0,1,2.15.47,4.39,4.39,0,0,1,1.89,1.53,1.58,1.58,0,0,1,.06,1.6,1.47,1.47,0,0,1-1.07.83,2.42,2.42,0,0,1-1.53-.29h0l.34-.67a2,2,0,0,0,1.06.28.78.78,0,0,0,.63-.44.89.89,0,0,0-.13-1,4.67,4.67,0,0,0-1.56-1.09,3.08,3.08,0,0,0-1.7-.49,1,1,0,0,0-.78.48.87.87,0,0,0,0,.77,1.63,1.63,0,0,0,.78.68h0l.33.17h0l.48-.94h0l.58.3h0L104,84.06h0l-2.67-1.36m2.18,7.56-1.81-3.08h0l-2.19-1.43h0l.42-.65h0l2.2,1.42h0l3.55.4h0l-.43.66h0l-2.72-.35h0l0,0h0L104,89.61h0l-.43.65"/><path class="cls-5" d="M58.64,16.12h1.1V58.84H15.9A42.83,42.83,0,0,1,58.64,16.12"/><path class="cls-6" d="M60.84,16.12h-1.1V58.84h43.85A42.83,42.83,0,0,0,60.84,16.12"/><path class="cls-7" d="M58.64,101.57l1.1,0h0V58.84H15.9a42.83,42.83,0,0,0,42.74,42.73"/><path class="cls-5" d="M60.84,101.57l-1.1,0h0V58.84h43.85a42.84,42.84,0,0,1-42.75,42.73"/><path class="cls-8" d="M76.13,42.15v3.61h0L72.65,46a18.22,18.22,0,0,0-.72,6.26c.12,4-1.32,12.76,1.68,19.87a31.49,31.49,0,0,0,9.24,11.68h0l-6.6-.13S66.89,75.14,67.61,65c0,0-3.23,1.57-4.79,1.57h0V62s3.72.73,4.67-4.45S67.13,47,68.81,44.08s7.32-1.93,7.32-1.93"/><path class="cls-8" d="M38.57,33.88H80.11v3.65H61.88V80.68H57.51V37.53H38.57V33.88"/><path class="cls-4" d="M76.13,42.15v3.61h0L72.65,46a18.22,18.22,0,0,0-.72,6.26c.12,4-1.32,12.76,1.68,19.87a31.49,31.49,0,0,0,9.24,11.68h0l-6.6-.13S66.89,75.14,67.61,65c0,0-3.23,1.57-4.79,1.57h0V62s3.72.73,4.67-4.45S67.13,47,68.81,44.08s7.32-1.93,7.32-1.93"/><path class="cls-3" d="M43.35,42.15v3.61h0l3.48.24a18.4,18.4,0,0,1,.71,6.26c-.12,4,1.32,12.76-1.67,19.87a31.49,31.49,0,0,1-9.24,11.68h0l6.6-.13S52.58,75.14,51.86,65c0,0,3.24,1.57,4.8,1.57h0V62s-3.72.73-4.68-4.45.36-10.6-1.32-13.48-7.31-1.93-7.31-1.93"/><path class="cls-4" d="M43.35,42.15v3.61h0l3.48.24a18.4,18.4,0,0,1,.71,6.26c-.12,4,1.32,12.76-1.67,19.87a31.49,31.49,0,0,1-9.24,11.68h0l6.6-.13S52.58,75.14,51.86,65c0,0,3.24,1.57,4.8,1.57h0V62s-3.72.73-4.68-4.45.36-10.6-1.32-13.48-7.31-1.93-7.31-1.93"/><path class="cls-4" d="M38.57,33.88H80.11v3.65H61.88V80.68H57.51V37.53H38.57V33.88"/></symbol></defs><g id="图层_2" data-name="图层 2"><g id="body_1" data-name="body 1"><use width="118.68" height="118.68" xlink:href="#新建符号"/></g></g></svg>