<svg xmlns="http://www.w3.org/2000/svg" viewBox="0 0 18 22.56"><defs><style>.cls-1,.cls-2{fill:#750069;}.cls-1{fill-rule:evenodd;}</style></defs><g id="图层_2" data-name="图层 2"><g id="图层_7" data-name="图层 7"><path class="cls-1" d="M0,0A9,9,0,0,0,4.45,1.16,8.43,8.43,0,0,0,9,.1a8.47,8.47,0,0,0,4.55,1.06A9.2,9.2,0,0,0,18,0c0,2.65,0,5.18,0,7.82s.14,5.34-.53,7.35a9.77,9.77,0,0,1-1.37,2.58,9.25,9.25,0,0,1-2,2,14.7,14.7,0,0,1-2.52,1.43c-.76.39-1.52.78-2.27,1.19a.7.7,0,0,0-.29.19,12.27,12.27,0,0,0-1.28-.71l-1.3-.68c-.45-.23-.9-.42-1.33-.65a8.71,8.71,0,0,1-1.19-.78A9.52,9.52,0,0,1,.58,15.15a12.42,12.42,0,0,1-.51-3.43C0,10.48,0,9.16,0,7.87,0,5.25,0,2.67,0,0,0,0,0,0,0,0ZM8.54.94a11,11,0,0,1-6,.49A6.84,6.84,0,0,1,.8.9.44.44,0,0,0,.58.83c0,2.44,0,5,0,7.32,0,1.22-.06,2.47,0,3.64a11.79,11.79,0,0,0,.5,3.2,9.12,9.12,0,0,0,1.25,2.45,8.48,8.48,0,0,0,2.91,2.64c.4.21.82.4,1.25.6.84.39,1.67.8,2.5,1.21.83-.42,1.67-.81,2.49-1.21.43-.2.86-.38,1.26-.59a8.19,8.19,0,0,0,2.06-1.63A9,9,0,0,0,16.9,15c.62-1.92.5-4.35.5-6.8s0-4.91,0-7.35A.57.57,0,0,0,17.2.9a7.61,7.61,0,0,1-1.69.54,12,12,0,0,1-4.62-.06A7.56,7.56,0,0,1,9,.71,2.06,2.06,0,0,1,8.54.94Z"/><path class="cls-1" d="M9.2,1.71a2.24,2.24,0,0,1,1.7,1.06A.74.74,0,0,1,11,3a.13.13,0,0,1-.12.11c-.08,0-.1-.11-.15-.21a2,2,0,0,0-1.46-1c0,.16.11.31.17.48l.17.48s0,.06,0,.1.26,0,.24.14-.55,0-.75.08c0,.14,0,.32,0,.47s.62,0,.72,0a.15.15,0,0,1,0,.12c0,.19-.54,0-.75.09,0,.15,0,.38-.11.39s-.12-.2-.12-.39c-.19-.07-.72.1-.76-.08s.57-.07.75-.15a1.77,1.77,0,0,0,0-.46c-.17-.06-.72.09-.75-.08S8.24,3,8.36,3s0,0,0-.1c.13-.3.23-.64.35-.95a1.92,1.92,0,0,0-1.6,1.32,4,4,0,0,0,.4-.08c.19,0,.58-.13.46.14-.15,0-.33,0-.48.08a2.54,2.54,0,0,0-.44.13,1,1,0,0,0,0,.18c.14,0,.29-.08.48-.11S8,3.49,8,3.7s-.13.09-.22.09A2.16,2.16,0,0,0,7,4a.45.45,0,0,0,0,.16A3.85,3.85,0,0,1,7.5,4c.12,0,.42-.1.45,0s-.32.14-.48.17a1.81,1.81,0,0,0-.41.13c0,.09,0,.21,0,.23S6.8,4.19,6.79,4a2.22,2.22,0,0,1,2-2.3c.07-.1.07-.31.21-.3S9.12,1.62,9.2,1.71Zm-.07.46c0-.09-.06-.27-.16-.25-.16.33-.27.72-.41,1.08h.32c-.06-.32.3-.34.23,0h.33Z"/><path class="cls-1" d="M4.46,2.55s0,.09,0,.13.32.08.33.16-.09.2-.06.32c.24.16.3.48.56.6a1.43,1.43,0,0,1,.15.86c0,.23-.27.25-.23.56,0,.13.1.39.2.43s.14,0,.2,0,0,.18,0,.24c-.19,0-.26.23-.48.15a.65.65,0,0,1-.28-.2,1,1,0,0,1,0-.16,1.35,1.35,0,0,0-.18-.25c-.14,0-.57,0-.5.19s.37,0,.26.31a1.07,1.07,0,0,1-.45.24H3.8s-.07,0-.12,0-.21,0-.31,0A1.15,1.15,0,0,1,3.08,6a.79.79,0,0,1-.14-.18c0-.1,0-.19-.12-.24s-.12,0-.17,0-.22-.11-.3,0,.06.17.11.27,0,.17,0,.31a.33.33,0,0,1-.19.15c-.12,0-.27-.07-.43-.11s-.27,0-.29-.13,0-.11.07-.17,0-.14,0-.2a1,1,0,0,1,0-.49,1.47,1.47,0,0,1,0-.53c0-.06,0-.12,0-.15A1,1,0,0,1,2,4.13,1.41,1.41,0,0,1,2.83,4c.07,0,.13.07.19.08s.29,0,.41,0A.22.22,0,0,0,3.53,4c0-.21-.11-.29-.16-.43a2.35,2.35,0,0,1,0-.65.84.84,0,0,1,.16-.27.48.48,0,0,1,.21-.15.92.92,0,0,1,.4.08A.39.39,0,0,1,4.46,2.55ZM3.9,3C4,3,4,2.89,4.07,2.83s0-.14-.08-.14A.5.5,0,0,1,3.9,3Zm-.36,0s0,0,.07,0,0-.13.06-.18S3.54,2.88,3.54,2.94Zm.6,0c-.08.07-.25.14-.2.28H4c.11,0,.14-.15.22-.22s.2-.09.19-.22S4.21,2.92,4.14,3Zm0,.45s0,0,0,0,.06,0,.1,0a1.27,1.27,0,0,1,.18,0,.08.08,0,0,0,0-.13C4.34,3.43,4.11,3.24,4.14,3.42Zm.62-.09s-.07,0-.06.08.12.14.19.14S4.81,3.33,4.76,3.33Zm-.84.14a.25.25,0,0,0-.14.2c.06,0,.08-.07.13-.08s.07.14.14.16.1,0,.11,0-.09.05-.14.08L3.77,4c-.15.09-.35.2-.13.31,0,0,0-.07,0-.1a.66.66,0,0,1,.23-.18s.08,0,.11,0,.13-.11.21-.15a.4.4,0,0,0,.19,0c.09,0,0,.2.14.22s0-.16.07-.22-.07-.07-.06-.15.06,0,.1-.06.07.24.16.31a.27.27,0,0,0,.05-.31c0-.07-.18-.1-.2-.15a1.86,1.86,0,0,0-.57.11C4,3.63,4,3.54,3.92,3.47ZM5,4.09c.07,0,0-.19,0-.19S5,4.09,5,4.09Zm-.9.08c0,.06.1,0,.11.1s.06.16.08.25-.15,0-.18,0a.07.07,0,0,0-.06.08c.22,0,.1.27,0,.32H3.9c-.06,0-.11.07-.17.09S3.56,5,3.5,5s0,.26.07.25.08-.16.16-.19S3.84,5,3.91,5,4,5,4,5s.17-.2.25-.3.27-.17.28-.32c-.12,0-.27,0-.29-.07s.06-.11.08-.18S4.14,4.09,4.13,4.17Zm-1.79,0s0,0-.09,0-.06.07-.08.11.08,0,.1.1.19-.12.33-.14C2.57,4.06,2.43,4.15,2.34,4.2Zm.47-.06a.14.14,0,0,0,.06.17A.09.09,0,0,0,2.81,4.14Zm.5.39s0-.17-.05-.17S3.22,4.55,3.31,4.53Zm-1.55.1a.27.27,0,0,0,.25,0,.4.4,0,0,1,0-.18A.28.28,0,0,0,1.76,4.63Zm1.6,0c.07,0,.23,0,.25,0S3.34,4.53,3.36,4.68Zm-1.09.18s0-.05-.07-.05-.05.06-.1.07L2,4.86s-.06,0,0,.07a.11.11,0,0,1,.11,0s0-.06,0-.05a.3.3,0,0,1-.25.31.3.3,0,0,1-.12.15c0,.18,0,.34.18.34a.28.28,0,0,0,0-.13.21.21,0,0,1-.07-.21.16.16,0,0,1,.11,0,.76.76,0,0,0,.18-.25c0-.11.08-.18.13-.1s0,.08,0,.08,0,0,0-.07.15-.06.18-.14S2.35,4.82,2.27,4.86ZM1.81,5a.21.21,0,0,0,0-.22C1.75,4.81,1.73,5,1.81,5ZM3,5.06s.08,0,.1,0,0,0,0,0a.18.18,0,0,0-.07,0S3,5,3,5.06Zm.82.12a.17.17,0,0,0-.1.06c0,.07,0,.18,0,.2s-.16,0-.22,0-.06,0-.13,0,0,.16,0,.16,0-.1,0-.1a.44.44,0,0,0,.08.11c0,.07,0,.21,0,.27s0-.29.15-.3,0,.11,0,.18.09.08.17.09a.32.32,0,0,0,.25-.08s-.14,0-.18-.09,0,0,0-.07a.35.35,0,0,1-.09-.37s.11-.11,0-.16S3.86,5.15,3.86,5.18Zm-1.79.55v0c.08,0,.1.1.17.07A.16.16,0,0,0,2.07,5.73Z"/><path class="cls-1" d="M15.83,5.45c-.08,0-.21,0-.3,0s-.23,0-.27.13,0,.1,0,.14c-.08.19-.26.24-.41.36s-.21,0-.32,0-.12.06-.24,0-.43-.15-.46-.25.13-.23.25-.28-.1-.17-.27-.19a2.06,2.06,0,0,0-.21,0,.68.68,0,0,0-.2.25c0,.05,0,.11,0,.15a.54.54,0,0,1-.4.23c-.16,0-.19-.15-.36-.17s-.06-.2,0-.24.16,0,.22-.06A1,1,0,0,0,13,5c0-.11-.19-.22-.21-.31a.91.91,0,0,1,0-.17,1.23,1.23,0,0,1,.14-.72c.06-.07.16-.11.23-.18s.15-.36.34-.42a1.6,1.6,0,0,0-.07-.33.34.34,0,0,1,.33-.16s0-.09,0-.13a.32.32,0,0,1,.27,0,1.59,1.59,0,0,1,.33-.08c.19,0,.31.17.38.3a.63.63,0,0,1,.12.3v.24a1.6,1.6,0,0,1,0,.22c0,.19-.31.4-.07.53.13,0,.27,0,.41,0A1.05,1.05,0,0,0,15.33,4a2.15,2.15,0,0,1,.44,0,1.29,1.29,0,0,1,.68.39c0,.11.09.21.11.33a2.89,2.89,0,0,1,0,.72.7.7,0,0,0,0,.33c0,.07.07.1.06.16s-.17.12-.3.16-.5.19-.61-.06a.73.73,0,0,1,0-.31C15.77,5.62,15.92,5.59,15.83,5.45ZM14.29,3c0-.06-.07-.07-.09-.13s0-.12,0-.17S14.15,3,14.29,3Zm.27,0s.07,0,.08,0a.19.19,0,0,0-.12-.17C14.5,2.82,14.56,2.88,14.56,3Zm-.76-.13c0,.16.15.17.24.26s.08.17.17.18S14.12,3,14,3,13.92,2.79,13.8,2.82Zm-.31.58s0-.08-.08-.07-.12.2-.11.22A.22.22,0,0,0,13.49,3.4Zm.4,0c-.05,0-.1-.05-.13,0s-.09.12,0,.13.2-.06.26,0,0-.1,0-.13S13.94,3.36,13.89,3.37Zm.38.1c-.1,0-.1.18-.2.22a1.51,1.51,0,0,0-.56-.11c0,.07-.18.09-.2.18a.37.37,0,0,0,0,.28c.11,0,.12-.46.28-.23,0,.06-.06.09-.06.14s0,.14,0,.21.07-.17.15-.21a1.38,1.38,0,0,0,.2,0c.09.07.16.19.32.13.09.09.25.12.24.28a.12.12,0,0,0,.11-.13c0-.08-.2-.16-.3-.22a1.3,1.3,0,0,0-.15-.1c-.07,0-.15,0-.16-.1s.06,0,.09,0,.07-.14.15-.17.07.1.12.08A.25.25,0,0,0,14.27,3.47ZM13.1,4c.07.12.15,0,.1-.14S13.12,4,13.1,4Zm.73.07a.84.84,0,0,1,.08.19c0,.1-.2.06-.3.07s.05.34.28.3a.84.84,0,0,0,.25.31c.17-.06.16.11.3.1s.08.19.16.19.1-.16.07-.26-.15,0-.24,0-.07-.07-.12-.08-.13,0-.19,0A.31.31,0,0,1,14,4.61c0-.05.1,0,.11-.08s0,0-.05-.06-.13.14-.19,0a.41.41,0,0,0,.09-.26s.1,0,.11-.08S13.88,4,13.83,4.11Zm1.75.12c.12,0,.17.14.32.15s.1,0,.11-.1-.09,0-.09-.11,0,0-.09,0S15.61,4.08,15.58,4.23Zm-.26.08a.15.15,0,0,0,0-.17A.09.09,0,0,0,15.32,4.31Zm-.43.05a.13.13,0,0,0,0,.17C15,4.55,15,4.37,14.89,4.36Zm1.27.27a.42.42,0,0,0,.25,0c0-.12-.12-.16-.22-.2A.33.33,0,0,1,16.16,4.63Zm-1.59,0s.18,0,.25,0S14.58,4.52,14.57,4.65Zm1.1.19c.05.06.13.08.18.13s0,0,0,.07,0,0,0-.09c.15-.1.13.15.19.25s.1.06.12.11l.11,0c.08.14-.14.21-.05.36s.25-.36.09-.42c0,0,0,0,0-.06a.32.32,0,0,1-.26-.32c0,.07.09,0,.15,0s0-.06-.07-.07l-.07,0s0-.06-.08-.07,0,.06-.09.05S15.73,4.72,15.67,4.84Zm.71.18c.06,0,0-.21-.05-.21S16.3,5,16.38,5ZM15,5.06a.15.15,0,0,0,.1,0v0S15,5,15,5.06Zm-.69.2a2.44,2.44,0,0,1,0,.27c-.05,0-.1.08-.09.16s-.16,0-.19.11a.37.37,0,0,0,.42,0c0-.06,0-.17.06-.18s0,.27.13.3a.42.42,0,0,0,0-.27c.05,0,.05-.1.11-.11s0,.1,0,.1,0-.12,0-.16-.08,0-.15,0-.13-.09-.22,0,0-.11,0-.21-.09-.09-.12-.14S14.32,5.22,14.34,5.26Zm1.6.58a.37.37,0,0,0,.16-.1C16.05,5.7,15.94,5.76,15.94,5.84Z"/><path class="cls-1" d="M10.89,3.29c.06,0,.08-.07.15-.07s.15.34.17.5,0,1.06-.29.8a.21.21,0,0,1,0-.14,1.81,1.81,0,0,0-.65-.17c-.12,0-.29,0-.24-.15s.34,0,.47,0a2.47,2.47,0,0,1,.45.11S11,4,11,4a2.19,2.19,0,0,0-.75-.2c-.11,0-.24,0-.24-.11s.05-.07.08-.11a2.62,2.62,0,0,1,.89.16c.07-.24-.25-.27-.43-.32a3.37,3.37,0,0,0-.5-.06c-.07,0-.07-.2,0-.2A2.37,2.37,0,0,1,10.89,3.29Z"/><path class="cls-1" d="M9.43,6c-.22-.27.47-.25.56-.39a1.27,1.27,0,0,0-.36-.09l-.38,0c0,.19.09.52-.12.58s-.6,0-.62-.11.35-.08.52-.1a.58.58,0,0,0,0-.37,3.33,3.33,0,0,0-1,.1c.09.13.34.1.36.23,0,.28-.45,0-.52,0a2.36,2.36,0,0,1-.67-.59C7.14,5.09,7,4.9,7,4.79s.23-.16.38-.2a6.38,6.38,0,0,1,2.83-.13l.43.13c.13,0,.36.09.38.18s-.2.4-.25.47a1.9,1.9,0,0,1-.79.64A1.24,1.24,0,0,1,9.43,6ZM7.26,4.86a2.06,2.06,0,0,0,.52.61,2.8,2.8,0,0,1,.46-.12c-.07-.06-.15-.1-.24-.17S7.81,5.07,7.82,5s.24-.15.39-.19a4,4,0,0,1,1.57,0c.16,0,.41.07.41.19s-.11.17-.18.21-.17.08-.23.17a1.71,1.71,0,0,1,.47.12,1.66,1.66,0,0,0,.5-.61A5.55,5.55,0,0,0,7.26,4.86ZM8.17,5A1.52,1.52,0,0,0,9.83,5,3.33,3.33,0,0,0,8.17,5Z"/><path class="cls-2" d="M2.6,11.67a.28.28,0,0,0,0-.08.22.22,0,0,0,0-.08.19.19,0,0,0-.1,0H1.27v-.09l1.14-.84H1.5a.19.19,0,0,0-.09.05.19.19,0,0,0,0,.09l0,.09H1.28v-.57h.07a.51.51,0,0,0,0,.09.16.16,0,0,0,0,.08l.08.05h1a.18.18,0,0,0,.07-.05.36.36,0,0,0,.05-.09.22.22,0,0,0,0-.1h.07v.4l-1.06.78h.85a.15.15,0,0,0,.09-.05l0-.09a.34.34,0,0,0,0-.09h.07v.56Z"/><path class="cls-2" d="M1.39,13.27l0-.58h.07a.42.42,0,0,0,0,.13s0,0,0,0h0l.3-.14-.05-.49a.7.7,0,0,0-.12,0l-.1,0-.07,0h0a.09.09,0,0,0-.06.07.66.66,0,0,0,0,.14H1.3l-.05-.52h.07a.14.14,0,0,0,0,.06l0,.06a.17.17,0,0,0,.06.06l.09,0c.17.06.38.11.61.17l.6.17v.08L1.58,13l-.05,0a.13.13,0,0,0,0,.06.08.08,0,0,0,0,.06.13.13,0,0,0,0,.06Zm.51-.62.52-.26-.56-.16Z"/><path class="cls-2" d="M3.05,14.72a.17.17,0,0,0,0-.07.28.28,0,0,0,0-.08.1.1,0,0,0-.1,0l-.17,0-1,.22,0-.08.93-1.07-.7.15-.18.06-.08.06a.25.25,0,0,0,0,.1v.1H1.56l-.12-.55.07,0,0,.08s0,.07,0,.07a.17.17,0,0,0,.1,0l.19,0,.67-.15a.11.11,0,0,0,.08,0l.06-.06a.23.23,0,0,0,0-.1v-.1l.07,0,.08.39-.86,1,.64-.15a.56.56,0,0,0,.18-.05s.07,0,.08-.07,0,0,0-.09v-.1H3l.12.55Z"/><path class="cls-2" d="M3.49,15.54l0,0-.05-.05a.07.07,0,0,0-.06,0l-.06,0-.71.41a.46.46,0,0,1-.14.05H2.28a.3.3,0,0,1-.15-.07A.44.44,0,0,1,2,15.68.36.36,0,0,1,2,15.42a.31.31,0,0,1,.16-.21.18.18,0,0,1,.12,0,.12.12,0,0,1,.1.06.17.17,0,0,1,0,.1s0,.05,0,.07l-.07,0H2a.19.19,0,0,0,0,.08.17.17,0,0,0,0,.11.13.13,0,0,0,.09.09.2.2,0,0,0,.11,0l.12,0,.15-.07.64-.37,0,0a.11.11,0,0,0,0-.06s0-.05,0-.08l0-.07.06,0,.31.53Z"/><path class="cls-2" d="M3,17.14l-.38-.5,0,0s0,0,.05.06l.06.05h.05a.09.09,0,0,0,.06,0l.8-.61a.08.08,0,0,0,0,0,.06.06,0,0,0,0-.06.16.16,0,0,0,0-.08l0-.06.06,0,.37.49,0,.05,0-.06-.06-.05a.07.07,0,0,0-.06,0l0,0-.8.62a.08.08,0,0,0,0,0A.06.06,0,0,0,3,17,.25.25,0,0,0,3,17l0,.07Z"/><path class="cls-2" d="M5.39,17.63l-.07,0-.08,0a.16.16,0,0,0-.1,0L5,17.71l-.7.74-.07-.06L4.42,17l-.5.52a.92.92,0,0,0-.11.15.19.19,0,0,0,0,.09.16.16,0,0,0,0,.1l.05.08-.05,0-.41-.4,0-.05.08.05.07,0a.09.09,0,0,0,.09,0,.52.52,0,0,0,.15-.13L4.32,17a.35.35,0,0,0,0-.08.13.13,0,0,0,0-.08.26.26,0,0,0,0-.11l-.05-.08,0-.05.29.27-.16,1.31.45-.48a.64.64,0,0,0,.12-.15.19.19,0,0,0,0-.09l0-.09L5,17.24l0,0,.41.39Z"/><path class="cls-2" d="M6.18,19.07l-.06,0-.06,0H6l0,0-.06.09c-.05.06-.07.11-.09.13a.09.09,0,0,0,0,.06l-.27-.07a1.67,1.67,0,0,1-.23-.12A.66.66,0,0,1,5.1,19a.52.52,0,0,1-.1-.23.66.66,0,0,1,0-.28.8.8,0,0,1,.12-.27A.88.88,0,0,1,5.33,18a.66.66,0,0,1,.26-.11.61.61,0,0,1,.27,0,.64.64,0,0,1,.26.1,1,1,0,0,1,.15.14.6.6,0,0,1,.09.15l.07,0,.07.05-.27.41-.07-.05a.75.75,0,0,0,0-.16.43.43,0,0,0,0-.16.28.28,0,0,0,0-.15A.34.34,0,0,0,6.06,18,.41.41,0,0,0,5.89,18a.31.31,0,0,0-.19,0,.66.66,0,0,0-.2.11,2,2,0,0,0-.18.21,2.26,2.26,0,0,0-.11.22.66.66,0,0,0,0,.23.73.73,0,0,0,0,.2.36.36,0,0,0,.15.15.31.31,0,0,0,.14.07.26.26,0,0,0,.12,0l.06-.08,0-.07,0-.07,0-.06a.15.15,0,0,0,0-.07l-.06-.07-.07-.05,0-.06.5.34Z"/><path class="cls-2" d="M9.68,19.29l-.08,0a.11.11,0,0,0-.08,0,.11.11,0,0,0,0,.09,1,1,0,0,0,0,.18v.6a.39.39,0,0,1-.05.2.35.35,0,0,1-.13.14.48.48,0,0,1-.16.08l-.17,0a.78.78,0,0,1-.22,0,.56.56,0,0,1-.17-.09.38.38,0,0,1-.09-.13.26.26,0,0,1,0-.15v-.82s0-.05,0-.06,0,0,0,0l-.07,0H8.25v-.06h.58v.06H8.76l-.06,0a0,0,0,0,0,0,0,.14.14,0,0,0,0,.06v.77a.52.52,0,0,0,0,.11.21.21,0,0,0,.05.12.22.22,0,0,0,.1.09.42.42,0,0,0,.18,0,.48.48,0,0,0,.18,0,.38.38,0,0,0,.12-.09l.05-.11a.5.5,0,0,0,0-.12v-.57a.9.9,0,0,0,0-.18c0-.05,0-.08,0-.09l-.09,0-.1,0v-.06h.57Z"/><path class="cls-2" d="M11.3,18.59l-.07.05a.17.17,0,0,0-.06.06s0,.06,0,.11a.82.82,0,0,0,.06.16l.41.94-.08,0-1.23-.71.29.66a.65.65,0,0,0,.09.17.16.16,0,0,0,.08.06H11l0,.06-.53.23,0-.07.07,0s.06-.05.06-.06a.16.16,0,0,0,0-.1,1.87,1.87,0,0,0-.07-.18l-.27-.63a.35.35,0,0,0-.05-.08l-.07,0-.11,0-.1,0,0-.06.37-.16,1.14.66L11.14,19a.57.57,0,0,0-.09-.16.17.17,0,0,0-.08-.07h-.1l-.09,0,0-.07.52-.22Z"/><path class="cls-2" d="M12.7,19.4l-.57.27,0-.06.07,0,.06,0a.14.14,0,0,0,0-.06.18.18,0,0,0,0-.06l-.44-.9a.07.07,0,0,0,0-.05.06.06,0,0,0-.06,0h-.08l-.07,0,0-.06.57-.28,0,.07-.07,0-.06.05a.14.14,0,0,0,0,.06.09.09,0,0,0,0,0l.44.91,0,.05h.13l.08,0Z"/><path class="cls-2" d="M13.38,17.21s0,0,0,0l0,.06a.22.22,0,0,0,0,.08s0,.05,0,.08.09.28.15.5.15.47.22.71l-.06.05-.67-.4-.44-.26-.06,0s0,0-.06,0h-.06l-.06,0,0-.05.45-.36,0,.05-.09.09s0,.05,0,.06a0,0,0,0,0,0,0l0,0,.29.17.56.34c0-.13-.08-.28-.13-.44s-.09-.29-.11-.35a.87.87,0,0,0,0-.12.11.11,0,0,0,0-.05.05.05,0,0,0,0,0l-.06,0-.06,0a.13.13,0,0,1-.06,0l0-.05.41-.33Z"/><path class="cls-2" d="M14.94,16.75l.3.28-.74.89-.06,0a.43.43,0,0,0,0-.07s0,0,0-.06a0,0,0,0,0,0-.05s0,0,0-.05L13.71,17l-.05,0h-.07l-.06,0s0,0,0,0l-.06,0,.7-.83.25.22,0,0a.48.48,0,0,0-.18,0,.28.28,0,0,0-.15,0l-.05.06-.07.07-.13.17.42.35.1-.12.06-.09a.11.11,0,0,0,0-.08.16.16,0,0,0,0-.08l-.06-.07,0-.06.42.35-.05.06a.19.19,0,0,0-.09-.05l-.08,0-.08,0-.08.07-.1.12.32.27.09.06h.06l.06,0,.09-.09.05-.07.06-.07a.25.25,0,0,1,0-.07.15.15,0,0,0,0-.06.77.77,0,0,0,0-.17.69.69,0,0,0-.07-.13Z"/><path class="cls-2" d="M16.09,15.45l-.17.33-.41,0-.36,0-.07.12.39.22h.06s0,0,.06,0l0-.05,0-.06.06,0-.28.51-.06,0,0-.06a.39.39,0,0,0,0-.06.11.11,0,0,0,0-.06l-.05,0-.89-.48-.06,0a.06.06,0,0,0-.05,0l0,.05,0,.05-.06,0,.31-.56a.48.48,0,0,1,.09-.14.53.53,0,0,1,.12-.1l.14,0a.42.42,0,0,1,.15,0,.35.35,0,0,1,.11.09.34.34,0,0,1,.06.12.51.51,0,0,1,0,.13s0,.09,0,.14l.28,0,.28,0,.11,0,.08,0,.05,0,0-.05Zm-1.16,0a.26.26,0,0,0-.21,0,.31.31,0,0,0-.16.14l-.08.15L15,16l.06-.12a.34.34,0,0,0,0-.24A.31.31,0,0,0,14.93,15.41Z"/><path class="cls-2" d="M15.74,14.26l.11,0a.33.33,0,0,1,.14,0,.41.41,0,0,1,.27.21.49.49,0,0,1,0,.36.61.61,0,0,1-.07.17,1.71,1.71,0,0,1-.11.14l.06.06,0,.07-.47-.1,0-.08.17,0A.38.38,0,0,0,16,15a.27.27,0,0,0,.12-.09.36.36,0,0,0,.08-.15.45.45,0,0,0,0-.11.12.12,0,0,0,0-.09.2.2,0,0,0-.06-.07l-.09,0a.33.33,0,0,0-.17,0,.26.26,0,0,0-.14.1l-.09.13-.09.13a.73.73,0,0,1-.18.14.39.39,0,0,1-.24,0L15,14.9l-.1-.12a.83.83,0,0,1,0-.15.49.49,0,0,1,0-.17.77.77,0,0,1,.07-.16l.11-.11L15,14.13l0-.08.45.11,0,.08h-.16a.32.32,0,0,0-.14,0,.5.5,0,0,0-.12.08.37.37,0,0,0-.07.14.25.25,0,0,0,0,.17.18.18,0,0,0,.12.09.22.22,0,0,0,.16,0,.34.34,0,0,0,.12-.09l.1-.12.08-.12.09-.1Z"/><path class="cls-2" d="M16.56,13.34l-.08.62h-.07v-.08a.08.08,0,0,0,0-.07.05.05,0,0,0,0-.05l-.05,0-1-.14h-.05a.08.08,0,0,0,0,.05l0,.07a.25.25,0,0,0,0,.07H15.1l.08-.62h.07v.07a.22.22,0,0,0,0,.08.05.05,0,0,0,0,0l.05,0,1,.14h.06s0,0,.05,0a.31.31,0,0,0,0-.07.25.25,0,0,0,0-.07Z"/><path class="cls-2" d="M15.68,11.68v.07l-.09,0-.09.05-.08.06a.12.12,0,0,0-.05.07V12a.28.28,0,0,0,0,.09v.06l1.11,0h.06a.12.12,0,0,0,0-.05l0-.07a.34.34,0,0,0,0-.09h.07l0,.66h-.07a.34.34,0,0,0,0-.09.17.17,0,0,0,0-.08s0,0,0,0l-.07,0-1.12,0v.23a.07.07,0,0,0,0,.06.23.23,0,0,0,.07.07l.09.06.08,0v.07l-.38,0,.05-1.21Z"/><path class="cls-2" d="M15.39,10.16a.18.18,0,0,0,0,.06l0,0,0,.05.07.06.21.14.28.17.1.05h.38l.06,0,0,0a.15.15,0,0,0,0-.08.31.31,0,0,0,0-.08h.07v.65h-.07s0,0,0-.08a.54.54,0,0,0,0-.08.07.07,0,0,0,0,0h-.4l-.06,0L16,11l-.25.13-.23.12-.09.05,0,.06,0,.06a.13.13,0,0,0,0,.06H15.3v-.6h.07a.45.45,0,0,0,0,.14.11.11,0,0,0,0,.05h0l0,0a.09.09,0,0,0,.06,0l.06,0,.18-.09.23-.12-.39-.24a.54.54,0,0,0-.16-.09l0,0,0,0a.15.15,0,0,0,0,.07.13.13,0,0,1,0,.06h-.07v-.49Z"/><path class="cls-2" d="M8.47,15.92a.19.19,0,0,0-.13.07.21.21,0,0,0-.06.16.25.25,0,0,0,.05.15.22.22,0,0,0,.14.05.21.21,0,0,0,.13-.05.28.28,0,0,0,0-.32A.18.18,0,0,0,8.47,15.92Z"/><path class="cls-2" d="M9.35,15.92a.19.19,0,0,0-.13.07.6.6,0,0,0-.06.32.56.56,0,0,0,.06.31.15.15,0,0,0,.13.07.17.17,0,0,0,.14-.07.69.69,0,0,0,0-.31.66.66,0,0,0,0-.31A.19.19,0,0,0,9.35,15.92Z"/><path class="cls-2" d="M14.57,6.73H3.43a0,0,0,0,0,0,0c0,1.44,0,2.91,0,4.3a8.88,8.88,0,0,0,.65,3.7,5.83,5.83,0,0,0,2,2.31A24.63,24.63,0,0,0,9,18.51a22.93,22.93,0,0,0,2.89-1.45,5.78,5.78,0,0,0,2-2.31A9.31,9.31,0,0,0,14.58,11C14.58,9.64,14.59,8.16,14.57,6.73ZM6,13.06a8.74,8.74,0,0,0,2.1-1.4,3.85,3.85,0,0,1-1,.11,1.45,1.45,0,0,1,.22-.21A4.5,4.5,0,0,0,8.61,9.94a2.12,2.12,0,0,1-.66.11A5.56,5.56,0,0,0,9,7.78h0a5.51,5.51,0,0,0,1.08,2.27,2,2,0,0,1-.65-.12.79.79,0,0,0,.11.29,4.7,4.7,0,0,0,1,1.14c.14.14.3.26.43.41a2.3,2.3,0,0,1-1-.12,3.5,3.5,0,0,0,.5.44,9.82,9.82,0,0,0,1.61,1s.11,0,.13.09A3.42,3.42,0,0,1,10.72,13a1.52,1.52,0,0,0-1.64.18A1.73,1.73,0,0,0,7.34,13a3.76,3.76,0,0,1-1.49.13C5.87,13.09,5.94,13.08,6,13.06Zm1.72,3.71H7.59V16l-.1.08-.13.06v-.12a.85.85,0,0,0,.17-.1.35.35,0,0,0,.1-.13h.08Zm1-.2a.43.43,0,0,1-.12.17.35.35,0,0,1-.18.05.28.28,0,0,1-.18-.06.26.26,0,0,1-.09-.17h.12a.23.23,0,0,0,.05.11.17.17,0,0,0,.1,0,.16.16,0,0,0,.1,0l.06-.06a.37.37,0,0,0,.05-.11.77.77,0,0,0,0-.15v0a.31.31,0,0,1-.23.13.25.25,0,0,1-.2-.09.29.29,0,0,1-.08-.22.28.28,0,0,1,.08-.23.29.29,0,0,1,.22-.09.24.24,0,0,1,.16.05.33.33,0,0,1,.12.14.62.62,0,0,1,0,.26A.75.75,0,0,1,8.74,16.57Zm.88,0a.35.35,0,0,1-.09.16.35.35,0,0,1-.18.05.24.24,0,0,1-.21-.1.56.56,0,0,1-.1-.38,1,1,0,0,1,0-.27.37.37,0,0,1,.1-.16.31.31,0,0,1,.17-.05.32.32,0,0,1,.14,0,.2.2,0,0,1,.09.09.45.45,0,0,1,.06.14,1.18,1.18,0,0,1,0,.22A.7.7,0,0,1,9.62,16.58Zm.92.19H9.91a.31.31,0,0,1,0-.08.75.75,0,0,1,.07-.12,1.22,1.22,0,0,1,.16-.14,1.21,1.21,0,0,0,.2-.2.24.24,0,0,0,.06-.14.17.17,0,0,0-.05-.12.19.19,0,0,0-.26,0,.17.17,0,0,0,0,.14H9.94a.31.31,0,0,1,.09-.2.29.29,0,0,1,.22-.07.3.3,0,0,1,.21.07.27.27,0,0,1,.08.19.43.43,0,0,1,0,.11l-.08.12-.18.16-.14.12,0,.06h.46Zm-1-2.63,0,.25H8.53l0-.25H5.17l.42-.51a6.19,6.19,0,0,0,1.65-.34,1.89,1.89,0,0,1,1.85.16A1.85,1.85,0,0,1,11,13.32a7,7,0,0,0,1.52.29l.4.53Z"/></g></g></svg>