<svg xmlns="http://www.w3.org/2000/svg" viewBox="0 0 274.29 274.29"><defs><style>.cls-1,.cls-2{fill:#1d2088;}.cls-2{fill-rule:evenodd;}</style></defs><g id="图层_2" data-name="图层 2"><g id="图层_1-2" data-name="图层 1"><path class="cls-1" d="M65.1,35.68l.08.12c-.15.33-.3.65-.46,1L65,37a8.54,8.54,0,0,0,2.75-1.58l-.18-.58c-1.73-1-3.3-1.08-5.52,0A9.1,9.1,0,0,0,65.1,35.68Z"/><path class="cls-1" d="M71.65,36.71c0-.07,0-.13,0-.2l-.23-.37-1.23-.26-.39.24a22.91,22.91,0,0,1-7.61,7.45c0,.15.07.3.11.45C66,45.26,68.87,38.76,71.65,36.71Z"/><path class="cls-1" d="M79.86,39.82c0,1.94,3.08,5.51,3,8.35a20.1,20.1,0,0,1-4.09,3.12C74.78,49.39,72,40.74,70.53,40c-.76,1-.69,2-1.69,3l-.93-.63h-.54c-.06.38-.11.77-.17,1.15l-.63.4-.08-.12-.08-.12a1.28,1.28,0,0,0,.45-1l-.33,0c-.41.81-.5.91,0,1.4a5,5,0,0,0-2.18,2.77c-1.56-.51-4.27-4.69-4.4-6.39-1-.17-1.82-.65-2.93-.4-.71.25-.8.93-1.34,1.55-.48-2-.12-3.34-2.1-4.73l-2.12.31c-.43.74.27,11.17,1,12.35l.28.17a4.88,4.88,0,0,0,2.74-1.05l3.67,5.82c-.32,1.34-3.56,6.21-5.08,7.22l.08.12a4.77,4.77,0,0,0,1.47.63c2.35-1.84,2.62-4.15,4.58-6a2.61,2.61,0,0,0,.28.17c.77,2.62,4.13,8.73,5.43,9.72L67.1,66c1.37-3.25-2-7.78-4.3-11.31l.13-.08c1.79.35,2.81,1.85,4.78,1.64L71.1,61l-.13.08-2.7-.88L68,60l-.13.08a20.83,20.83,0,0,0,6.22,4.2l1.47-1.63C75.49,61.19,67,51.11,65.23,48.6,66,47.39,66.67,46.17,67.4,45c.52.41.39.35,1,.21,1.7,3.89,4.76,8,3.35,11.22l.23.37,1.31.38.39-.24c.09-3.44-1.56-8.42-4-12.21l.54-2.25c.12-.09.25-.17.38-.25,3.26,5.56,6,14,13,7.53a6.62,6.62,0,0,0,1.67-2.45C84.54,45,82.46,41.5,80.35,40Zm-24,6.4c-.07-.58-.15-1.17-.22-1.76.71-.08.37-.06.72.58a4.34,4.34,0,0,1,1.32-1.88L61.19,47c-.32.39-1.5.33-2.2,1C58,47.45,56.91,46.83,55.87,46.22Zm5.06,5.46c-.38-.8-.32-.87-.79-1.24,0-.24,0-.49.07-.74l.59-.2A2.25,2.25,0,0,0,61.2,51c.31-.84.23-1.36,1.16-2.12l.31.5-1,1.83Zm5.25,2.38-.13.08L63,52.64l-.08-.12L63.69,51C64.54,51.27,65.48,52.86,66.18,54.06Z"/><path class="cls-1" d="M20.85,142.92l-1-.06-.42.49c-.34,1.55.48,2.39.69,3.32h.13c.5-.63,0-1.45-.25-2.11.68-.39,1.16,1.73,1.34,3l-.15.25c-5.42-1.4-4.06-5.06-6.16-9.15a4.94,4.94,0,0,0-2.18.52c-.4,1.33-.48,2.7-.74,3.88a.57.57,0,0,0,0,.13c.39.06.24,0,.63-.09a4.66,4.66,0,0,1,.38,2.11l-5.92-.5-2.08.92c-.1.25-.2.51-.31.76,5.41,3.49,10-1.85,9.26,8.3l.84.83,1.15-.19c1.8-.67,2.24-3.3,2-5.49,4.23.54,5.06,3.05,4.67,6.56a6.8,6.8,0,0,0,2.67,2c1.33.45,10.85-1.16,12-1.6a7,7,0,0,0,.19-3.12,5.79,5.79,0,0,0-4.06,0l-.5,0c.6-1.43.08-3.29-.48-4.74,1.11-.76,3.67-.31,5.23-.45A1.86,1.86,0,0,0,38,147c-.47-.06-2-.1-2.26-.4,1.79-2.27,4.66-2.95,3.72-7-3-1.64-11.33-6.34-16.29-5.21C21.59,136.56,21,139,20.85,142.92Zm10.89,10.75-7,1-.61-.43a10.88,10.88,0,0,0,.32-3.25,5.7,5.7,0,0,0,3.14-1.63c.27,1.19.53,2.38.8,3.58l.12.14a1.73,1.73,0,0,0,.94-1c.55-1.17-.14-2.52-.29-3.55l1.27,0C31.2,149.49,31.57,152.23,31.74,153.67ZM26.38,148l.52-.24c.28.35.33.27.46.82-1,0-2.53-.24-3.32.32-.4.13-.16.25-.17.77h-.13c-.75-1-.45-2.51-1-3.73l0-.52a9.14,9.14,0,0,1,2.71,1.47A2.36,2.36,0,0,1,26.38,148ZM36,141.39c.38,2.68-.51,3.23-1.09,5.42l-2.54.1a7.61,7.61,0,0,1-.7-3c.48-1-.14-1.52-1.33-1.13a7.34,7.34,0,0,0,.13,4.06,2.46,2.46,0,0,1-1.66.29,12,12,0,0,1-.54-3.69l-.24-.15-1.27,0a4.13,4.13,0,0,0,.22,2.63.62.62,0,0,0,0,.13c-.91,0-4-2.25-4.62-3.16a36.82,36.82,0,0,1,.81-5C25.71,136.33,33.77,140.42,36,141.39Z"/><path class="cls-2" d="M137.14,0c75.54,0,137.15,61.61,137.15,137.14S212.68,274.29,137.14,274.29,0,212.68,0,137.14,61.61,0,137.14,0Zm0,2.89c74,0,134.25,60.31,134.25,134.25S211.09,271.4,137.14,271.4,2.89,211.09,2.89,137.14,63.2,2.89,137.14,2.89ZM17.77,89.36A7.8,7.8,0,0,1,20,88s2.13-.78,2.44-.5a16.16,16.16,0,0,1,.09,4.38s.45,1.06.55-2.59c0,0,.31.59.87-1.67a2.48,2.48,0,0,1,.81-1.14s1-1.45-.86-1.43c0,0-5.54.37-6.3,3.35a1.15,1.15,0,0,0,.14.93Zm4.68,17.55s-.64-1.83,2.84-19.62c0,0,1.49-3.85,2-5.91,0,0,.86-2.16,1.9-1.27,0,0,.23.42-1,2.28L26,88s.81-.25-.81,6.14c0,0,.66-.14-.62,7.35,0,0-.16,3.08.11,3.24,0,0-1.49,1.48-1.61,1.65.12-.17-.65.58-.65.58Zm4.12-13.09s1,2,4.93,1.26c0,0,3.38,1.59,3.69-1.91,0,0,4,.7,11.11,4,0,0,.13,2.33-5.55,3.49,0,0,5.88,1.57,7.55-3.32,0,0,1.3-1-7.17-3.64l-7-2.15s.83-2.34-.14-2.7h0s-.42.42-.5-.25c0,0-1.23-2.66-2.47-3.15a2.13,2.13,0,0,0-2.44,2s.21,2.57-.48,3.34a4.88,4.88,0,0,0-.15,2.1s-.25.55-.69.49a.7.7,0,0,0-.69.47Zm3.05-1.34a5.22,5.22,0,0,0,3,.32s.18-2.13-2.67-4.44c-1,1-.31,4.12-.31,4.12Zm5.26,7.78s.47.54.72.56c0,0-.13,1,4,3.64,0,0,2.4,1,2.47-1.63,0,0-2-1.33-1.88-1.53,0,0,.41.07-1.77-1.42,0,0-1.13-1.66-1.06-1.5,0,0-.56-.39.39,1.15l.61.85s-.16.43-.59-.07c0,0-.62-.83-2.6-.53l-.19.31-.09.17Zm4-9.15a6.5,6.5,0,0,1,1.5-3.72A4.52,4.52,0,0,1,45,86.94s1.68,1.31-.58,2.24c0,0-4.07.76-5.1,1.93-.16.23-.41,0-.41,0Zm68.92-78.63a3.57,3.57,0,0,1,2.37,2.42l-1.1.29s-.63.87,1.32.27c0,0,.69,1,1.25.8l.22.43a18.42,18.42,0,0,0-5.13,2.95s-.2-3.05-1.8-2.58c0,0-2.69,3.88-3.26,11.36a1.49,1.49,0,0,1,.48.9s1.5,1.8,3.12-1.17c0,0,.16-6.88,3.85-8.07,0,0,.54-1.29,2,.84,0,0,1.11,4.49-.21,7.6,0,0-1.51-.45-1.11.61l-.73.6a1.75,1.75,0,0,1,.86.75s.34,1.6,2.72-.57c0,0,1.39-3.07.61-9.22,0,0-.81-1.47-2-.64,0,0-2.15-.46-.45-1,0,0,5-3,9.13-3.18,0,0-1.34,1.85-1,2.63,0,0-.31,1.39,2.56-.83a3.25,3.25,0,0,1,2-1.14s1.78-2.89-1.55-2.59a5.09,5.09,0,0,1-1.54.31s-2-.31-5.75,1.15a4.06,4.06,0,0,0-2.27-4l-1-.88s-3.17,0-3.39,1.14c-1.06.35,0,.89-.06.86Zm6.78,5s-.09,4,2.06,6.66a1.66,1.66,0,0,0,1.79.56l.13.35a30.79,30.79,0,0,0-3.07,3.7s.42.36.43-.31c0,0,.44-.72,1-.44,0,0,1.41-2.46,2.42-2.72,0,0,1.63-.14,1.62-1.57,0,0-.43-.45-.82-.33,0,0,.07-.67-.34.1,0,0-1.74.65-1.84-.31a25.86,25.86,0,0,1-1.92-5.4s-.73-.57-1-.31c-.47-.12-.45,0-.45,0ZM112.5,30.88A15.42,15.42,0,0,0,118,28.09a3.35,3.35,0,0,1,3.46-.68s1.15.7-.68,1.68a8.06,8.06,0,0,0-2,.4s2.14,3,1.64,4.73c0,0,.25.31.62-.19,0,0,4.86-1,5.68,0,0,0,.32,0-.09.27,0,0,.25.76-.18,1,0,0-5.39-.65-9.06,2.87a8,8,0,0,0-2.89,1.74,7.8,7.8,0,0,1-2.86.19,6.11,6.11,0,0,0-.42-1.3s-.67-.47.51,0a7.26,7.26,0,0,0,2.58-1.07,12.76,12.76,0,0,1,2.69-1.34s2.19-3.07-.1-5.51c0,0-1.78,2.25-3.1,1,0,0-.83-.81-1-.69s-.31-.32-.31-.32ZM171.8,9.57s.31.44-1.77,2.34c0,0-5.22,4.3-6.78,4.66,0,0-1.22,1.92.46,1.28,0,0,1.77-1.31,1.12.83l-3,7s-5,1.36-7.24.42c0,0,.67-1.34,1.14-1.32A2.12,2.12,0,0,0,153.23,27s-.06,2.44,7.89.38c0,0-2.76,6.58-5.5,9.83,0,0-.52-.52-.34-1,0,0-1.75,2.51,0,2.77,0,0,.29.9,3.07-3.28,0,0,.87,5.66,2.75,6.14,0,0,1,0,1.62-2.57L168,25.37l1.59-.42s1.57,1.31,8,1c0,0,2.89.54,3.19,1.21,0,0,1,.16,1.52-.45,0,0,.4-2.08-4.45-2.1l-6.42-1.1s-2.95-.8-2-1.16c0,0,1.22-3.2,2.44-3.92A1.69,1.69,0,0,0,170.77,16s-3.13-.55-3.39.14l-1.07,1.35s2.23-1.46,4.06.19l-3.23,7.2a18.48,18.48,0,0,0-3.35.87s-.9.29.27-2c0,0,1-3.43,1.62-2.56,0,0,.83.95-.55,2.49,0,0,.75-.58,1.21,0,0,0,1.45.87,1.07-1.17a3.67,3.67,0,0,0-1.67-2.51,2.81,2.81,0,0,1,.13-2,1,1,0,0,0-.31-.91s6.2-4.37,7.14-7.14c0,0-.19-.84-.64-.7a.22.22,0,0,0-.26.28ZM158.55,34.81s.11-.85.49-.29a12.62,12.62,0,0,0,.8,3s-.2.31-.45-.14-.84-2.59-.84-2.59Zm5.36-7.91a10.51,10.51,0,0,1,2.35-.9l.1-.55.44,0S161.56,38,161.38,38.61l-1.07-.82s-1.11-3.33-1.11-3.61c0,0,3-5.72,3.41-7.12,0,0,.62.62.18,4.32,0,0,.91,1,1.2,0,0,0,.68-2.68,0-4.16.07-.28-.05-.33-.05-.33Zm14.16-10.37s2.07,3.08,0,5.46l-1.64.05s-.33.35,2.84,1.22c0,0,3.1-.71,1-4.8a8.36,8.36,0,0,0-1.91-2.22c-.34-.26-.32.29-.32.29Zm-7.33,12.7s1-.75,1.47-.52c0,0-.05-.94.22-.81l1.37.79a14.22,14.22,0,0,1,3.26-.52s.83,1.13,1.08,1.19c0,0-3.16,3.58-3.16,4.46,0,0-3.5,5.47-1.44,7.33,0,0,4,2.2,5.23,1.46,0,0,3.15-4.53,3.18-5.86,0,0,1.84,2.79-1,7.15,0,0-1.94,2.42-8.65-1.88,0,0-2.44-.87.34-6.21a65.71,65.71,0,0,1,3.25-6s-2.18-.1-2.46.27c0,0-6.12,9.67-9.34,9.65,0,0-1.24-1.35,0-1.76,0,0,3.86-.75,7.52-8-.7.27-.82-.65-.82-.65Zm57.82,21.15s2.62,2.46,4,2.76c0,0,.9,1.3,1.48,1.5l-.16,1.58-1,1.33s-1.15.19-3.44-1.75l-3.13,2,2.53,1.6a1.54,1.54,0,0,1,.08,2.4s-.11.76-.72-.15c0,0-.87.28-1.38-1.21l-2.26-1.07S223,59.7,223,60.54c0,0-2.2,8.44-.56,14.73A6.81,6.81,0,0,1,223,79a1.42,1.42,0,0,0-1,.4,29.56,29.56,0,0,1-2.55-4.12,9.44,9.44,0,0,1-.18-5.85s1.58-7.46,1.35-7.9c0,0-10.87,4.63-17.26-.89,0,0-1.81-1.55.77-1.11,0,0,9.91,3.06,17.76-1.44a12.37,12.37,0,0,1-3.54-1.94,6.42,6.42,0,0,1,0-2.69s-1.31-1.39.62-.33c0,0,.4,0,5.26,3.48,0,0,2.93-1.32,3-2.73,0,0,.06-1-.22-1.22,0,0-.32.08.53-1a3.12,3.12,0,0,0,.4-.94c0-.25.63-.34.63-.34Zm28.81,50s-7.5,2.73-9,2.48l-3.44-7s-1.45,1-1.06,3.49c0,0,2.7,3.77,1.83,4.1,0,0-10.11,2-12.82-4.18l-.74,1.11s.6.69.33,1.29c0,0,1.06,2.08,4.65,3.43,0,0,6.68.33,7.94-.07,0,0-6.65,9.87-5.72,12.5l-.09,2.09s.34-.15.27.77c0,0,.71.09.84.26,0,0,.32,0,.32-.43s.42-7.19,5.66-15.11l.92-.19a13.77,13.77,0,0,1,4.35,5.47,1.28,1.28,0,0,0,1.11-1.43,4.36,4.36,0,0,1-.43-2.4s.31-.71-.84.82l-2-2.87s-.75-.46,3.36-1.22c0,0,5.42-1.4,5.7-1.87,0,0,.87-1.2-.42-1.09a1.6,1.6,0,0,0-.69,0Zm-121.61-57h2.76V59.92c-.75,0-1.51-.06-2.27-.06h-.49V43.37Zm2.76,166.38v21.17h-2.76V209.39c.36-.17.72-.36,1.07-.54.56.31,1.12.61,1.69.9ZM129.23,43.69,132,43.5,133.13,60c-.93.07-1.84.16-2.75.28l-1.15-16.56ZM143.76,212l1.3,18.61-2.75.19-1.4-19.91c.94.39,1.88.77,2.85,1.11Zm-21-167.52,2.73-.39,2.34,16.61c-.91.18-1.81.39-2.7.62l-2.37-16.84Zm26.55,169.05,2.29,16.3-2.73.38-2.45-17.39c1,.27,1.91.5,2.89.71Zm-33-167.82,2.7-.57,3.6,16.93q-1.32.44-2.61,1L116.29,45.7ZM155,214.31l3,14.28-2.7.57L152.07,214c1,.14,1.91.23,2.88.31ZM110,47.38l2.65-.76,5,17.43c-.85.41-1.68.84-2.5,1.29l-5.15-18Zm50.74,167,3.6,12.56-2.65.76-3.79-13.24h.25c.87,0,1.74,0,2.59-.08ZM103.77,49.49l2.59-.94L113,66.64c-.81.51-1.59,1-2.35,1.6l-6.83-18.75Zm62.68,164.13,4.06,11.18-2.59.94-4.25-11.67c.94-.12,1.86-.27,2.78-.45ZM97.74,52l2.52-1.12,8.39,18.84c-.75.61-1.47,1.25-2.17,1.91L97.74,52ZM172,212.14l4.51,10.12L174,223.37l-4.65-10.43c.9-.24,1.78-.51,2.66-.8ZM91.9,55l2.43-1.3,10.45,19.65c-.68.71-1.33,1.43-2,2.19L91.9,55Zm85.49,154.92,5,9.39L180,220.6l-5.07-9.54c.85-.36,1.69-.74,2.51-1.15ZM86.28,58.34l2.33-1.46,12.78,20.44c-.6.81-1.17,1.62-1.72,2.46L86.28,58.34ZM182.41,207l5.6,8.95-2.34,1.46-5.59-8.94c.79-.47,1.57-1,2.33-1.47ZM80.9,62.08l2.23-1.62,15.4,21.19c-.51.88-1,1.79-1.44,2.7L80.9,62.08ZM187,203.43l6.38,8.77-2.23,1.63-6.27-8.63c.73-.58,1.43-1.16,2.12-1.77ZM75.8,66.19l2.11-1.77L95.4,85.25c-1,.18-2.05.4-3.05.65L75.8,66.19Zm115.29,133.1,7.39,8.81-2.11,1.77-7.17-8.53c.65-.67,1.28-1.35,1.89-2.05ZM71,70.64l2-1.91L90.16,86.51c-1,.3-1.93.63-2.87,1L71,70.64Zm123.58,124,8.69,9-2,1.92L193,197c.57-.75,1.1-1.52,1.62-2.31ZM66.53,75.42l1.84-2,16.71,15c-.9.4-1.79.84-2.66,1.31L66.53,75.42ZM197.45,189.58l10.3,9.29-1.83,2-9.79-8.81c.46-.82.9-1.67,1.32-2.53ZM62.39,80.49l1.7-2.17L80.27,91c-.83.51-1.64,1-2.43,1.6L62.39,80.49Zm137.2,103.7,12.3,9.61L210.2,196l-11.59-9.05c.36-.9.69-1.8,1-2.73Zm-141-98.35,1.55-2.28L75.79,94.1c-.75.59-1.48,1.21-2.18,1.86l-15-10.12ZM201,178.56l14.65,9.88-1.54,2.29-13.74-9.27c.24-1,.45-1.92.63-2.9ZM55.24,91.44l1.37-2.38,15.11,8.72c-.65.67-1.29,1.37-1.91,2.08L55.24,91.44ZM201.65,172.8l17.4,10-1.38,2.39-16.27-9.39c.12-1,.2-2,.25-3ZM52.25,97.27l1.2-2.47L68.13,102c-.56.74-1.1,1.5-1.61,2.28l-14.27-7ZM201.52,167,222,177l-1.21,2.47-19.15-9.33c0-1.06-.07-2.11-.16-3.15ZM49.67,103.29l1-2.56,14.39,5.82c-.46.79-.89,1.61-1.3,2.44l-14.12-5.7Zm151,58,24,9.69-1,2.55-22.35-9q-.24-1.62-.6-3.21ZM47.52,109.47l.86-2.62,14.27,4.64c-.35.85-.68,1.71-1,2.58l-14.15-4.6Zm156,47.78,23.29,7.57-.85,2.61-24.6-8q1.11-1.06,2.16-2.19ZM45.81,115.79l.67-2.67,14.38,3.58c-.24.88-.46,1.78-.65,2.68l-14.4-3.59Zm161,37.31,21.63,5.4-.67,2.67L205,155.49c.63-.78,1.24-1.57,1.83-2.39ZM44.54,122.21,45,119.5l14.72,2.6c-.13.91-.23,1.82-.31,2.74l-14.9-2.63ZM209.7,148.54l20,3.53-.48,2.71-21.06-3.71c.53-.82,1-1.67,1.5-2.53Zm-166-19.83L44,126l15.3,1.61v.6c0,.73,0,1.45,0,2.17l-15.64-1.64ZM212,143.63l18.56,2-.28,2.74-19.43-2c.41-.88.79-1.76,1.15-2.65ZM43.37,135.25l.09-2.76,16.14.57q.15,1.4.39,2.76l-16.62-.57Zm170.27,3.19,17.28.6-.1,2.75-18-.62q.44-1.35.78-2.73ZM43.46,141.79,43.37,139l17.17-.6c.23.92.48,1.83.76,2.73l-17.84.62Zm171.18-8.73,16.18-.56.09,2.75-16.7.58c.18-.91.32-1.83.43-2.77ZM44,148.32l-.29-2.74,18.43-1.94c.34.9.71,1.78,1.11,2.65l-19.25,2ZM215,127.58,230.27,126l.28,2.74-15.66,1.65c0-.84.07-1.69.07-2.54v-.24ZM45,154.78l-.49-2.71,19.86-3.5c.47.86.95,1.71,1.47,2.54L45,154.78Zm169.55-32.69,14.68-2.59.48,2.71-14.88,2.63c-.07-.93-.16-1.84-.28-2.75ZM46.48,161.17l-.67-2.67,21.41-5.35c.58.83,1.18,1.62,1.81,2.4l-22.55,5.62Zm167-44.49,14.3-3.56.66,2.67-14.34,3.58c-.18-.91-.39-1.8-.62-2.69ZM48.38,167.43l-.86-2.61,23-7.48c.69.75,1.4,1.48,2.14,2.19l-24.31,7.9Zm163.38-56,14.15-4.6.85,2.62-14,4.57c-.29-.88-.61-1.74-1-2.59ZM50.7,173.55l-1-2.55,24.59-9.94c-.22,1.06-.41,2.12-.56,3.2l-23,9.29Zm158.65-67.06,14.23-5.76,1,2.56-14,5.64c-.4-.83-.83-1.64-1.29-2.44Zm-155.9,73L52.25,177l21.19-10.34c-.08,1-.12,2.07-.13,3.13l-19.86,9.68Zm152.89-77.63,14.49-7.06L222,97.27l-14.1,6.88c-.51-.78-1-1.55-1.6-2.29ZM56.61,185.23l-1.37-2.39,18.13-10.46c0,1,.13,2,.25,3l-17,9.82ZM202.78,97.66l14.89-8.6,1.38,2.38-14.39,8.31c-.6-.71-1.23-1.41-1.88-2.09ZM60.16,190.73l-1.54-2.28L74,178.05c.18,1,.39,1.94.64,2.9l-14.51,9.78ZM198.73,93.94l15.39-10.38,1.54,2.28-14.77,10c-.7-.65-1.42-1.27-2.16-1.87ZM64.09,196l-1.7-2.17,13-10.2q.45,1.38,1,2.73L64.09,196ZM194.26,90.77,210.2,78.32l1.69,2.17L196.68,92.38c-.79-.56-1.59-1.1-2.42-1.61ZM68.37,200.92l-1.84-2,11-10c.41.87.85,1.7,1.31,2.53l-10.52,9.47ZM189.45,88.19l16.47-14.82,1.83,2L192.1,89.51c-.86-.47-1.74-.91-2.65-1.32ZM73,205.56l-2-1.91,9.39-9.73c.51.79,1,1.55,1.61,2.3l-9,9.34ZM184.39,86.24,201.3,68.73l2,1.91-16,16.61c-.93-.38-1.88-.71-2.85-1ZM77.91,209.87l-2.1-1.77,8-9.59c.61.7,1.23,1.39,1.88,2.05l-7.82,9.31ZM179.14,85l17.23-20.53,2.11,1.77-16.3,19.42c-1-.26-2-.48-3-.66Zm-96,128.88-2.23-1.62,7-9.6c.68.62,1.39,1.21,2.11,1.78l-6.86,9.44Zm91.6-130.77,16.42-22.6,2.23,1.62L177,84.62c-.52-.08-1-.13-1.57-.18-.23-.47-.46-.93-.71-1.38ZM88.61,217.41l-2.33-1.47,6.12-9.79c.75.52,1.53,1,2.32,1.48l-6.11,9.78ZM172.05,78.67l13.62-21.79L188,58.34,173.7,81.23c-.52-.87-1.07-1.73-1.65-2.56ZM94.33,220.6l-2.43-1.3,5.44-10.23c.81.41,1.65.8,2.5,1.16L94.33,220.6Zm74.52-146L180,53.69l2.43,1.3L170.75,76.88c-.62-.79-1.25-1.55-1.9-2.3Zm-68.59,148.8-2.52-1.12,4.87-11c.87.31,1.76.59,2.65.83l-5,11.25Zm64.88-152.5,8.89-20L176.54,52l-9.28,20.85c-.68-.69-1.39-1.36-2.12-2ZM106.36,225.74l-2.59-.94,4.36-12c.91.18,1.83.34,2.76.47l-4.53,12.44ZM161,67.61l6.93-19.06,2.59.94-7.22,19.83c-.75-.59-1.52-1.16-2.3-1.71ZM112.62,227.68l-2.65-.77,3.82-13.31c.93.06,1.88.1,2.83.11l-4,14ZM156.44,64.85l5.22-18.24,2.65.77L158.9,66.25c-.8-.5-1.62-1-2.46-1.4ZM119,229.16l-2.69-.57,3.18-15c1,0,1.92-.14,2.87-.26L119,229.16ZM151.57,62.65l3.72-17.52,2.7.57-3.84,18c-.84-.39-1.71-.74-2.58-1.08ZM125.45,230.21l-2.72-.39,2.37-16.89c1-.19,1.93-.41,2.87-.66l-2.52,17.94Zm21-169.13,2.39-17,2.73.39-2.44,17.34c-.88-.27-1.77-.51-2.68-.73ZM132,230.79l-2.75-.19,1.33-19.09c1-.33,1.91-.67,2.83-1.06L132,230.79Zm9.16-170.65,1.17-16.65,2.75.2-1.18,16.85c-.9-.16-1.81-.29-2.74-.4Zm-61,184,11.22-15.33,2.9,1.68-13.87,19-3.39-2-.06-21.84-.12-.07L65.58,240.88l-2.91-1.69,13.87-19,3.64,2.1-.06,21.77Zm44-3.71,3.62.66-3.57,13.78q-2.43,7.64-12.92,6-9.78-2-8.2-9.32l3.69-14.25,3.62.67-3.48,13.43q-1.52,5.84,5.12,7.17,7,1.26,8.64-4.67l3.48-13.43Zm41.19,12.28L155,254.2l-1.51,6.52-3.51.52,5.72-22.62,3.93-.58,13.21,19.84-3.79.55-3.67-5.76Zm-9.73-1.19,8-1.17-5.54-8.83-.14,0-2.32,10Zm46.48-14.69-8.65,5.92,1.5,6.53-2.92,2-4.79-22.83,3.28-2.24,20.57,12-3.15,2.16-5.84-3.57Zm-9.25,3.2,6.66-4.57-8.85-5.49-.12.07,2.31,10Z"/><path class="cls-1" d="M258.77,154.25l-.74-1.12-.58-.45q.38,1.2.72,2.4l.61.2a2.75,2.75,0,0,0,1.63-2.25A3.29,3.29,0,0,0,258.77,154.25Z"/><path class="cls-1" d="M257,152c0-.12,0-.25,0-.38l-.32-.42-1-.12a12.21,12.21,0,0,0-1.38,2.28l.67.6c.57-.45.69-1.1,1.09-1.81C256.52,151.71,256.47,151.83,257,152Z"/><path class="cls-1" d="M262.73,153.43a5.79,5.79,0,0,0-.21,2.93c-2.66.2-9.42-2-10.58-3.44l2-1.3.26-.1s0-.08,0-.13l-2.44.61h-.13l.12-1c.72-.82,2.27-.91,3.07-1.7,1.73.43,2.36,1.6,4.27,1.92.19-.23.38-.47.58-.7,0,0,0-.09,0-.13-1.25-.45-2.57-.94-3.82-1.48.09-.51.47-.75.78-1.33,1.55-.07,2.87,1.61,4.24,2.18.1.18.2.37.31.55l-1.87,2.1.09.27a3.28,3.28,0,0,0,2.23-1.93c1.59.46,1.77,1.69,3.63,2l.58-.7c-.44-.39-.34.1-.86-.11l-2.62-2.11a5.65,5.65,0,0,0,1.2-2.82l-.23-.16a6.08,6.08,0,0,0-1.39,2.28l-.4.22-1.08-1.42a1.25,1.25,0,0,1,1.18-.5l.15-.24-1.59-.19c.34-1.16.07-1.24-.11-2.33l-.69-.47c0,.38,0,.77,0,1.16l-1.48-.18c.55.56,1.2.5,1.47,1.33.06.18.12.36.19.54a6.47,6.47,0,0,0-.56.45c-1.16-.94-2.92-3-4.35-3.35,0-.13,0-.25,0-.38,2,.06,3.93.3,5.42-.51a20.26,20.26,0,0,0,5.17,3.83,1.58,1.58,0,0,0,1.07-.65c-1.73-1.11-5.18-2.87-5.52-5a1.61,1.61,0,0,0-1.48-.17c-.2.63,0,.68.24,1.18-.72.47-6.81.62-8,.46-.07-.52-.13-1-.19-1.57.32,0,.65.08,1,.12l.14-.11c-.29-1.91-2.54-4.29-4.42-4.9l-.38.08a2.48,2.48,0,0,0-.24,2c.54,1.26,2.33,1.65,2.92,2.8.78,1.54.73,8,.5,10.61l-1.18.5c.1.8.44,1,1,1.4-.24.66-.48,1.32-.73,2l0,.26c-1.09-.46-1.49-3.1-1.75-4.21l-.23-.15c-.21,1.65.48,6.47,1.18,7,1.56-.74,1.31-2.66,2.24-4.24a1,1,0,0,1,.41-.34c1.57.95,8.46,4.2,10.95,3.49l.38-.08C263.5,156.4,263.59,153.91,262.73,153.43Zm-8.12-7.4c.63.33,1.26.66,1.88,1-.29.67-.71.82-1.14,1.28l-2-1.27c0-.17,0-.33.05-.51Zm-2.74,4.31c-.09-2.07-.19-4.14-.28-6.21.53-.43,1.69-.37,2.43-.49l.21.29c-.23.22-.46.46-.7.68l1,.9a.49.49,0,0,0,0,.12l-.16.25-2.26.11-.15.24c0,.13,0,.26,0,.38a5.71,5.71,0,0,0,2.51,2c-.55.92-1.78.95-2.45,1.77Z"/><path class="cls-1" d="M249.58,151.74l.76,0c.08-.33.15-.67.24-1-.43-1.3-.87-2.59-1.3-3.89,0-.12,0-.25.05-.38l1,.12.4-.21a3.56,3.56,0,0,0-3.27-1.93l-.42.46c.18.86.27,1.29,1,1.67.1.19.2.37.31.55l-2,1.18-.49-.06c-.19-3-.39-6-.58-9l-1-.12c-.88,2.58-.26,6.54.33,8.93,0,.17,0,.34-.06.5a26.73,26.73,0,0,1-8.62-.89,12.84,12.84,0,0,1-.91-6.16l-.23-.16c-3.47,8.46,3.08,8.86,9.63,8.36h.12c.29,1.56-.64,3.55-1.17,4.76l.09.26.72.22c1.34-1.43,1.4-3.34,1.63-5.35C247.16,148.5,249,150.57,249.58,151.74Zm-.88-4.22c.87.35.76.77,1.07,1.54l-.12,1-1.73-1.24-.09-.27Z"/><path class="cls-1" d="M111.58,180.57v1.61h3.85v11.37h2.06V177.43H116Q115.52,180.74,111.58,180.57Z"/><path class="cls-1" d="M130,177.43q-4.92.27-5.19,5.55.18,5,5,5.2a4,4,0,0,0,3.67-1.89h.09c-.53,4.12-1.82,6.12-3.85,6a2.54,2.54,0,0,1-2.77-2.6h-2q.27,3.95,4.74,4.12c3.71-.12,5.67-3.11,5.91-8.95Q135.5,177.52,130,177.43Zm.18,8.95c-2.27.07-3.37-1.1-3.31-3.49s1.1-3.45,3.13-3.58q3,.09,3.23,3.41C133.2,185.1,132.19,186.32,130.22,186.38Z"/><path class="cls-1" d="M144.83,183.16a5,5,0,0,0-3,1l.63-4.39h6.8v-2h-8.33l-1.16,8.69,1.7.09a4,4,0,0,1,3-1.53,3.42,3.42,0,0,1,3.5,3.59c-.25,2.32-1.35,3.55-3.32,3.67s-3.25-.93-3.49-2.78H139.1c.3,2.74,2,4.18,5.19,4.3q5.47-.18,5.91-5.46C150,185.19,148.18,183.46,144.83,183.16Z"/><path class="cls-1" d="M158.46,188.63l1.7-1c3-1.32,4.5-3.1,4.39-5.37q-.36-4.49-5.11-4.84-5.55.18-5.55,5.83H156c.06-2.64,1.14-3.95,3.23-3.95s3,1,3.22,2.87c.12,1.49-.86,2.74-3,3.76l-2.15,1.25a6.77,6.77,0,0,0-3.75,6.36h11v-1.88h-8.78C156,190.53,156.84,189.52,158.46,188.63Z"/><path class="cls-1" d="M184.62,136.43c-.15-.19-15.83-19-47.55-19-32,0-47.4,18.81-47.55,19h0l-2.35-1.87h0l49.89-62.49L187,134.55Zm-47.55-22c17.44,0,30.13,5.32,38.35,10.49l-38.35-48L98.79,124.81C107,119.67,119.63,114.42,137.07,114.42Z"/><path class="cls-1" d="M184.62,158.41c-.15-.19-15.83-19-47.55-19-32,0-47.4,18.81-47.55,19h0l-2.35-1.87h0L137.07,94,187,156.53Zm-47.55-22c17.44,0,30.13,5.32,38.35,10.49l-38.35-48L98.79,146.79C107,141.65,119.63,136.4,137.07,136.4Z"/><path class="cls-1" d="M184.62,184.4c-.15-.19-15.83-19-47.55-19-32,0-47.4,18.82-47.55,19h0l-2.35-1.87h0L137.07,120,187,182.52Zm-47.55-22c17.44,0,30.13,5.32,38.35,10.5l-38.35-48-38.28,48C107,167.64,119.63,162.38,137.07,162.38Z"/></g></g></svg>